<?xml version="1.0" encoding="UTF-8" standalone="no"?>
<!-- Generator: Adobe Illustrator 13.0.0, SVG Export Plug-In . SVG Version: 6.00 Build 14948)  -->

<svg
   version="1.1"
   id="Layer_1"
   x="0px"
   y="0px"
   width="1024"
   height="348"
   viewBox="0 0 1024 348"
   enable-background="new 0 0 1024 1024"
   xml:space="preserve"
   sodipodi:docname="logo2.svg"
   inkscape:version="1.2 (dc2aedaf03, 2022-05-15)"
   xmlns:inkscape="http://www.inkscape.org/namespaces/inkscape"
   xmlns:sodipodi="http://sodipodi.sourceforge.net/DTD/sodipodi-0.dtd"
   xmlns="http://www.w3.org/2000/svg"
   xmlns:svg="http://www.w3.org/2000/svg"><defs
   id="defs17931" /><sodipodi:namedview
   id="namedview17929"
   pagecolor="#ffffff"
   bordercolor="#000000"
   borderopacity="0.25"
   inkscape:showpageshadow="2"
   inkscape:pageopacity="0.0"
   inkscape:pagecheckerboard="0"
   inkscape:deskcolor="#d1d1d1"
   showgrid="false"
   inkscape:zoom="1.0029297"
   inkscape:cx="444.69718"
   inkscape:cy="511.50146"
   inkscape:window-width="3440"
   inkscape:window-height="1369"
   inkscape:window-x="-8"
   inkscape:window-y="-8"
   inkscape:window-maximized="1"
   inkscape:current-layer="Layer_1" />
<g
   id="g17926"
   transform="translate(0,-338)">
	<rect
   fill="none"
   width="1024"
   height="1024"
   id="rect17908"
   x="0"
   y="0" />
	<g
   id="g17924">
		<g
   id="g17916">
			<path
   fill="#159850"
   d="m 153.879,399.081 c -7.268,-13.843 -15.321,-26.012 -24.552,-35.194 -4.626,-4.585 -9.579,-8.435 -15.014,-11.221 -5.417,-2.78 -11.393,-4.467 -17.608,-4.46 -8.311,-0.004 -16.085,2.984 -22.886,7.59 C 61.896,363.92 52.075,376.87 43.231,392.307 30.06,415.479 19.412,444.539 11.888,472.097 4.396,499.711 0.04,525.476 0,542.985 c -0.005,26.91 10.812,51.368 28.288,69.022 15.364,15.549 35.993,25.914 58.922,28.174 v 33.782 c 0,5.242 4.251,9.495 9.495,9.495 5.244,0 9.495,-4.253 9.495,-9.495 v -33.782 c 22.931,-2.258 43.559,-12.624 58.924,-28.174 17.477,-17.654 28.292,-42.112 28.288,-69.022 -0.02,-13.378 -2.578,-31.429 -7.083,-51.575 -6.791,-30.167 -17.977,-64.651 -32.45,-92.329 z"
   id="path17910" />
			<path
   fill="#159850"
   d="m 509.896,439.66 c 2.343,-7.313 3.612,-15.11 3.612,-23.179 -0.006,-41.944 -33.997,-75.935 -75.941,-75.941 -21.557,-0.004 -41.073,9.017 -54.878,23.454 -3.176,-0.299 -6.396,-0.453 -9.653,-0.453 -56.765,0.007 -102.769,46.012 -102.775,102.775 0.007,56.765 46.009,102.769 102.775,102.776 1.13,0 2.253,-0.02 3.371,-0.057 9.974,11.878 22.887,21.23 37.607,26.958 v 77.97 c 0,5.242 4.251,9.495 9.495,9.495 5.244,0 9.495,-4.253 9.495,-9.495 V 601.14 c 4.818,0.77 9.755,1.176 14.786,1.176 51.472,-0.006 93.187,-41.72 93.193,-93.191 0.001,-27.591 -12.028,-52.423 -31.087,-69.465 z"
   id="path17912" />
			<path
   fill="#159850"
   d="m 967.186,453.005 c -6.268,-34.188 -36.174,-60.061 -72.16,-60.075 -5.436,0 -10.74,0.602 -15.842,1.73 -19.723,-26.986 -51.668,-44.536 -87.662,-44.538 -57.65,0.006 -104.791,44.947 -108.316,101.712 -36.828,2.162 -66.012,32.7 -66.018,70.067 0.006,38.769 31.422,70.186 70.191,70.192 h 123.398 v 81.87 c 0,5.243 4.252,9.496 9.496,9.496 5.244,0 9.496,-4.253 9.496,-9.496 v -81.87 h 124.037 c 38.77,-0.007 70.186,-31.424 70.193,-70.192 -0.017,-34.193 -24.436,-62.644 -56.813,-68.896 z"
   id="path17914" />
		</g>
		<path
   fill="#ffffff"
   d="m 151.624,598.654 c -14.106,14.243 -33.456,23 -54.918,23.006 C 75.247,621.654 55.894,612.897 41.79,598.654 27.701,584.397 18.994,564.771 18.992,542.985 c -0.022,-10.968 2.302,-28.253 6.62,-47.412 6.449,-28.792 17.38,-62.202 30.747,-87.681 6.651,-12.733 13.948,-23.457 21.1,-30.522 3.565,-3.542 7.065,-6.151 10.292,-7.798 3.245,-1.651 6.141,-2.369 8.956,-2.375 3.729,0.006 7.713,1.285 12.267,4.34 7.946,5.28 16.765,16.121 24.704,30.163 12,21.044 22.35,48.998 29.525,75.389 7.208,26.335 11.261,51.451 11.221,65.896 -0.006,21.786 -8.714,41.412 -22.8,55.669 z"
   id="path17918" />
		<path
   fill="#ffffff"
   d="m 500.259,561.591 c -13.46,13.444 -31.949,21.73 -52.47,21.734 -7.454,-0.001 -14.643,-1.102 -21.421,-3.142 -0.039,-0.012 -0.077,-0.021 -0.115,-0.033 -15.295,-4.63 -28.491,-14.065 -37.877,-26.571 -1.803,-2.403 -4.618,-3.8 -7.592,-3.8 -0.261,0 -0.523,0.011 -0.786,0.033 -2.308,0.188 -4.628,0.288 -6.962,0.288 -23.167,-0.004 -44.054,-9.361 -59.245,-24.539 -15.178,-15.19 -24.535,-36.077 -24.54,-59.245 0.004,-23.165 9.362,-44.052 24.54,-59.245 15.191,-15.175 36.078,-24.535 59.245,-24.539 4.101,0 8.133,0.3 12.084,0.87 3.267,0.471 6.543,-0.787 8.653,-3.325 10.482,-12.571 26.162,-20.544 43.794,-20.546 15.756,0.004 29.933,6.359 40.27,16.681 10.322,10.335 16.677,24.514 16.681,40.27 -0.002,7.992 -1.642,15.551 -4.598,22.438 -1.718,4.007 -0.508,8.63 2.95,11.282 17.72,13.598 29.121,34.886 29.123,58.923 -0.007,20.517 -8.292,39.008 -21.734,52.466 z"
   id="path17920" />
		<path
   fill="#ffffff"
   d="m 990.012,558.106 c -9.295,9.281 -22.037,14.991 -36.205,14.995 H 687.379 c -14.17,-0.004 -26.908,-5.714 -36.205,-14.995 -9.279,-9.296 -14.992,-22.037 -14.994,-36.205 0.002,-14.168 5.715,-26.909 14.994,-36.204 9.297,-9.279 22.035,-14.991 36.205,-14.995 1.41,0 2.857,0.073 4.357,0.199 2.703,0.228 5.346,-0.698 7.318,-2.562 1.971,-1.865 3.045,-4.452 2.969,-7.166 -0.023,-0.854 -0.037,-1.695 -0.037,-2.524 0.006,-24.755 10.006,-47.078 26.223,-63.313 16.234,-16.217 38.559,-26.218 63.313,-26.223 31.816,-0.002 59.703,16.569 75.617,41.574 2.322,3.653 6.85,5.275 10.965,3.929 5.336,-1.744 11.006,-2.695 16.922,-2.697 28.629,-0.017 52.092,22.152 54.219,50.219 0.354,4.657 4.053,8.372 8.709,8.747 26.314,2.102 47.07,24.141 47.053,51.016 0,14.168 -5.716,26.91 -14.995,36.205 z"
   id="path17922" />
	</g>
</g>
</svg>
