<?xml version="1.0" encoding="utf-8"?>
<!-- Generator: Adobe Illustrator 13.0.0, SVG Export Plug-In . SVG Version: 6.00 Build 14948)  -->
<!DOCTYPE svg PUBLIC "-//W3C//DTD SVG 1.1//EN" "http://www.w3.org/Graphics/SVG/1.1/DTD/svg11.dtd">
<svg version="1.1" id="Layer_1" xmlns="http://www.w3.org/2000/svg" xmlns:xlink="http://www.w3.org/1999/xlink" x="0px" y="0px"
	 width="1024px" height="1024px" viewBox="0 0 1024 1024" enable-background="new 0 0 1024 1024" xml:space="preserve">
<g>
	<rect fill="none" width="1024" height="1024"/>
	<g>
		<g>
			<path fill="#159850" d="M153.879,399.081c-7.268-13.843-15.321-26.012-24.552-35.194c-4.626-4.585-9.579-8.435-15.014-11.221
				c-5.417-2.78-11.393-4.467-17.608-4.46c-8.311-0.004-16.085,2.984-22.886,7.59c-11.923,8.124-21.744,21.074-30.588,36.511
				c-13.171,23.172-23.819,52.232-31.343,79.79C4.396,499.711,0.04,525.476,0,542.985c-0.005,26.91,10.812,51.368,28.288,69.022
				c15.364,15.549,35.993,25.914,58.922,28.174v33.782c0,5.242,4.251,9.495,9.495,9.495c5.244,0,9.495-4.253,9.495-9.495v-33.782
				c22.931-2.258,43.559-12.624,58.924-28.174c17.477-17.654,28.292-42.112,28.288-69.022c-0.02-13.378-2.578-31.429-7.083-51.575
				C179.538,461.243,168.352,426.759,153.879,399.081z"/>
			<path fill="#159850" d="M509.896,439.66c2.343-7.313,3.612-15.11,3.612-23.179c-0.006-41.944-33.997-75.935-75.941-75.941
				c-21.557-0.004-41.073,9.017-54.878,23.454c-3.176-0.299-6.396-0.453-9.653-0.453c-56.765,0.007-102.769,46.012-102.775,102.775
				c0.007,56.765,46.009,102.769,102.775,102.776c1.13,0,2.253-0.02,3.371-0.057c9.974,11.878,22.887,21.23,37.607,26.958v77.97
				c0,5.242,4.251,9.495,9.495,9.495c5.244,0,9.495-4.253,9.495-9.495V601.14c4.818,0.77,9.755,1.176,14.786,1.176
				c51.472-0.006,93.187-41.72,93.193-93.191C540.984,481.534,528.955,456.702,509.896,439.66z"/>
			<path fill="#159850" d="M967.186,453.005c-6.268-34.188-36.174-60.061-72.16-60.075c-5.436,0-10.74,0.602-15.842,1.73
				c-19.723-26.986-51.668-44.536-87.662-44.538c-57.65,0.006-104.791,44.947-108.316,101.712
				c-36.828,2.162-66.012,32.7-66.018,70.067c0.006,38.769,31.422,70.186,70.191,70.192h123.398v81.87
				c0,5.243,4.252,9.496,9.496,9.496s9.496-4.253,9.496-9.496v-81.87h124.037c38.77-0.007,70.186-31.424,70.193-70.192
				C1023.982,487.708,999.563,459.257,967.186,453.005z"/>
		</g>
		<path fill="#FFFFFF" d="M151.624,598.654c-14.106,14.243-33.456,23-54.918,23.006c-21.459-0.006-40.812-8.763-54.916-23.006
			c-14.089-14.257-22.796-33.883-22.798-55.669c-0.022-10.968,2.302-28.253,6.62-47.412c6.449-28.792,17.38-62.202,30.747-87.681
			c6.651-12.733,13.948-23.457,21.1-30.522c3.565-3.542,7.065-6.151,10.292-7.798c3.245-1.651,6.141-2.369,8.956-2.375
			c3.729,0.006,7.713,1.285,12.267,4.34c7.946,5.28,16.765,16.121,24.704,30.163c12,21.044,22.35,48.998,29.525,75.389
			c7.208,26.335,11.261,51.451,11.221,65.896C174.418,564.771,165.71,584.397,151.624,598.654z"/>
		<path fill="#FFFFFF" d="M500.259,561.591c-13.46,13.444-31.949,21.73-52.47,21.734c-7.454-0.001-14.643-1.102-21.421-3.142
			c-0.039-0.012-0.077-0.021-0.115-0.033c-15.295-4.63-28.491-14.065-37.877-26.571c-1.803-2.403-4.618-3.8-7.592-3.8
			c-0.261,0-0.523,0.011-0.786,0.033c-2.308,0.188-4.628,0.288-6.962,0.288c-23.167-0.004-44.054-9.361-59.245-24.539
			c-15.178-15.19-24.535-36.077-24.54-59.245c0.004-23.165,9.362-44.052,24.54-59.245c15.191-15.175,36.078-24.535,59.245-24.539
			c4.101,0,8.133,0.3,12.084,0.87c3.267,0.471,6.543-0.787,8.653-3.325c10.482-12.571,26.162-20.544,43.794-20.546
			c15.756,0.004,29.933,6.359,40.27,16.681c10.322,10.335,16.677,24.514,16.681,40.27c-0.002,7.992-1.642,15.551-4.598,22.438
			c-1.718,4.007-0.508,8.63,2.95,11.282c17.72,13.598,29.121,34.886,29.123,58.923C521.986,529.642,513.701,548.133,500.259,561.591
			z"/>
		<path fill="#FFFFFF" d="M990.012,558.106c-9.295,9.281-22.037,14.991-36.205,14.995H687.379
			c-14.17-0.004-26.908-5.714-36.205-14.995c-9.279-9.296-14.992-22.037-14.994-36.205c0.002-14.168,5.715-26.909,14.994-36.204
			c9.297-9.279,22.035-14.991,36.205-14.995c1.41,0,2.857,0.073,4.357,0.199c2.703,0.228,5.346-0.698,7.318-2.562
			c1.971-1.865,3.045-4.452,2.969-7.166c-0.023-0.854-0.037-1.695-0.037-2.524c0.006-24.755,10.006-47.078,26.223-63.313
			c16.234-16.217,38.559-26.218,63.313-26.223c31.816-0.002,59.703,16.569,75.617,41.574c2.322,3.653,6.85,5.275,10.965,3.929
			c5.336-1.744,11.006-2.695,16.922-2.697c28.629-0.017,52.092,22.152,54.219,50.219c0.354,4.657,4.053,8.372,8.709,8.747
			c26.314,2.102,47.07,24.141,47.053,51.016C1005.002,536.069,999.291,548.811,990.012,558.106z"/>
	</g>
</g>
</svg>
