<?xml version="1.0" encoding="utf-8"?>
<!-- Generator: Adobe Illustrator 13.0.0, SVG Export Plug-In . SVG Version: 6.00 Build 14948)  -->
<!DOCTYPE svg PUBLIC "-//W3C//DTD SVG 1.1//EN" "http://www.w3.org/Graphics/SVG/1.1/DTD/svg11.dtd">
<svg version="1.1" id="Layer_1" xmlns="http://www.w3.org/2000/svg" xmlns:xlink="http://www.w3.org/1999/xlink" x="0px" y="0px"
	 width="1024px" height="1024px" viewBox="0 0 1024 1024" enable-background="new 0 0 1024 1024" xml:space="preserve">
<g>
	<rect fill="none" width="1024" height="1024"/>
	<g>
		<linearGradient id="SVGID_1_" gradientUnits="userSpaceOnUse" x1="511.9995" y1="16.416" x2="511.9995" y2="1020.3733">
			<stop  offset="0" style="stop-color:#90BB3F"/>
			<stop  offset="0.2802" style="stop-color:#61A344"/>
			<stop  offset="0.7857" style="stop-color:#90BB3F"/>
			<stop  offset="1" style="stop-color:#61A344"/>
		</linearGradient>
		<path fill="url(#SVGID_1_)" d="M512,0c0,0-339.419,148.739-374.092,163.312c-34.672,14.572-68.841,49.243-68.841,107.031
			c0,38.743,0,355.709,0,560.434L512,1024c0,0,339.42-148.74,374.092-163.313c34.673-14.572,68.842-49.242,68.842-107.031
			c0-38.734,0-355.56,0-560.288L512,0z"/>
		<linearGradient id="SVGID_2_" gradientUnits="userSpaceOnUse" x1="511.9995" y1="16.416" x2="511.9995" y2="1020.3764">
			<stop  offset="0" style="stop-color:#90BB3F"/>
			<stop  offset="0.2802" style="stop-color:#61A344"/>
		</linearGradient>
		<polygon fill="url(#SVGID_2_)" points="282.729,127.551 282.729,778.896 512,1024 741.271,778.896 741.271,127.551 		"/>
		<g>
			<path fill="#FFFFFF" d="M299.372,349.988h-56.754c-12.979,0-23.5,10.429-23.5,23.292s10.521,23.292,23.5,23.292h56.754
				c12.979,0,23.5-10.429,23.5-23.292S312.351,349.988,299.372,349.988z"/>
			<path fill="#FFFFFF" d="M299.372,510.077h-56.754c-12.979,0-23.5,10.429-23.5,23.292c0,12.865,10.521,23.293,23.5,23.293h56.754
				c12.979,0,23.5-10.428,23.5-23.293C322.873,520.506,312.351,510.077,299.372,510.077z"/>
			<path fill="#FFFFFF" d="M299.372,670.166h-56.754c-12.979,0-23.5,10.432-23.5,23.293c0,12.865,10.521,23.293,23.5,23.293h56.754
				c12.979,0,23.5-10.428,23.5-23.293C322.873,680.598,312.351,670.166,299.372,670.166z"/>
			<g>
				<path fill="#FFFFFF" d="M716.238,561.287v89.721c0,73.363-57.253,88.729-89.969,88.729c-24.537,0-198.278,0-214.885,0
					c-16.604,0-23.576-3.965-23.576-22.801c0-18.838,0-381.646,0-388.52s0-9.845,6.829-9.845c5.205,0,221.273,0,249.258,0
					c27.984,0,80.049-64.422,80.049-64.422H290.509c-12.579,0-22.776,10.198-22.776,22.778v41.051h30.97
					c30.815,0,55.795,24.759,55.795,55.302c0,30.542-24.98,55.301-55.795,55.301h-30.97v49.486h30.97
					c30.815,0,55.795,24.759,55.795,55.301c0,30.543-24.98,55.301-55.795,55.301h-30.97v49.486h30.97
					c30.815,0,55.795,24.762,55.795,55.303c0,30.543-24.98,55.301-55.795,55.301h-30.97v31.826
					c0,12.578,10.198,22.775,22.776,22.775h463.184c12.58,0,22.777-10.197,22.777-22.775V500.843L716.238,561.287z"/>
			</g>
			<polygon fill="#FFFFFF" points="771.233,305.922 586.251,489.313 508.281,411.342 461.339,457.886 586.649,585.582 
				816.582,353.262 			"/>
		</g>
	</g>
</g>
</svg>
