<?xml version="1.0" encoding="UTF-8" standalone="no"?>
<!-- Generator: Adobe Illustrator 13.0.0, SVG Export Plug-In . SVG Version: 6.00 Build 14948)  -->

<svg
   version="1.1"
   id="Layer_1"
   x="0px"
   y="0px"
   width="1024.002"
   height="680"
   viewBox="0 0 1024.002 680"
   enable-background="new 0 0 1024.002 1024"
   xml:space="preserve"
   sodipodi:docname="logo2.svg"
   inkscape:version="1.2 (dc2aedaf03, 2022-05-15)"
   xmlns:inkscape="http://www.inkscape.org/namespaces/inkscape"
   xmlns:sodipodi="http://sodipodi.sourceforge.net/DTD/sodipodi-0.dtd"
   xmlns="http://www.w3.org/2000/svg"
   xmlns:svg="http://www.w3.org/2000/svg"><defs
   id="defs3417" /><sodipodi:namedview
   id="namedview3415"
   pagecolor="#ffffff"
   bordercolor="#000000"
   borderopacity="0.25"
   inkscape:showpageshadow="2"
   inkscape:pageopacity="0.0"
   inkscape:pagecheckerboard="0"
   inkscape:deskcolor="#d1d1d1"
   showgrid="false"
   inkscape:zoom="1.0029297"
   inkscape:cx="445.69426"
   inkscape:cy="511.50146"
   inkscape:window-width="3440"
   inkscape:window-height="1369"
   inkscape:window-x="-8"
   inkscape:window-y="-8"
   inkscape:window-maximized="1"
   inkscape:current-layer="Layer_1" />
<g
   id="g3412"
   transform="translate(0,-172)">
	<path
   fill="#34456b"
   d="m 996.828,832.08 c -9.325,-5.222 -18.822,-10.186 -28.396,-15.083 -4.729,-2.418 -9.508,-4.847 -14.381,-7.188 -4.876,-2.339 -9.78,-4.612 -14.719,-6.861 -9.933,-4.524 -19.923,-8.864 -29.967,-13.104 -8.907,-3.678 -17.911,-7.205 -26.978,-10.631 8.374,-8.662 11.995,-17.216 10.753,-25.288 -2.406,-4.009 -4.009,-10.426 -4.812,-17.645 -3.21,-15.237 -4.009,-32.882 -2.403,-52.132 -4.814,-7.221 -10.43,-13.637 -18.446,-20.054 -8.022,-6.416 -12.834,-10.425 -14.438,-11.228 -2.408,-0.803 -4.815,-2.404 -7.219,-4.01 l -28.873,-28.872 -1.605,-1.605 c -9.623,-8.82 -18.442,-18.447 -27.268,-29.675 -16.842,-21.654 -23.263,-38.5 -19.25,-52.936 4.013,-14.438 4.013,-27.268 0.803,-40.101 -3.21,-12.834 -0.803,-18.447 6.416,-17.646 7.216,0.799 16.843,7.216 29.676,21.653 11.229,12.833 20.05,33.686 28.07,62.558 v 0.803 c 0.803,4.013 2.408,7.22 3.207,10.43 2.407,7.215 4.814,13.632 8.824,20.852 0.802,2.407 2.402,4.01 3.21,6.417 3.206,5.613 6.413,11.229 10.425,16.842 1.602,2.408 4.01,5.614 5.614,8.021 0.803,1.605 1.602,2.404 2.408,4.01 2.402,2.407 4.009,5.614 6.412,8.021 2.407,2.404 4.01,5.614 6.421,8.018 1.602,1.605 2.403,3.211 4.009,4.815 1.604,2.404 4.009,4.812 6.413,7.216 2.406,1.604 4.013,4.014 6.42,6.416 0.799,1.605 2.403,2.408 4.01,4.014 2.403,1.602 4.811,4.009 7.219,5.613 0.799,0.803 1.604,1.603 2.404,2.404 1.604,0.802 4.009,2.407 5.613,3.21 2.407,1.602 4.814,3.206 8.021,4.009 l 29.676,11.229 c 25.663,8.823 42.506,9.626 49.726,3.21 8.021,-6.417 5.612,-12.833 -4.81,-18.447 -11.23,-6.417 -23.262,-11.229 -37.699,-16.843 -13.633,-4.814 -24.063,-10.43 -30.476,-15.24 -6.417,-5.614 -10.429,-8.82 -12.833,-10.426 -2.404,-2.407 -4.814,-4.009 -7.219,-6.416 -0.8,-0.804 -1.605,-0.804 -1.605,-1.605 -1.604,-0.803 -1.604,-1.602 -2.403,-2.403 -0.804,0 -0.804,-0.804 -1.604,-1.604 -3.21,-4.01 -6.417,-8.021 -9.623,-12.031 0,-0.802 -0.803,-0.802 -0.803,-1.604 -2.407,-4.009 -4.813,-7.22 -7.22,-11.229 -0.802,-2.403 -2.407,-4.009 -3.206,-6.416 -4.009,-7.22 -7.219,-14.435 -9.627,-20.852 -1.602,-3.21 -3.206,-7.219 -4.009,-10.43 -0.804,-3.206 -5.614,-16.039 -14.436,-38.495 -8.824,-22.457 -17.647,-40.904 -27.271,-54.54 -9.623,-13.637 -22.456,-28.872 -39.299,-44.912 -11.229,-8.824 -24.062,-15.241 -37.696,-20.053 -23.259,-7.22 -57.75,-12.833 -102.662,-16.842 -34.486,-0.803 -60.956,3.207 -79.403,10.426 -4.808,0 -10.425,0 -17.641,0 -12.833,-0.804 -23.264,-4.009 -29.676,-8.021 -15.24,-4.009 -27.271,-11.229 -35.289,-20.049 -2.407,-3.21 -4.014,-7.219 -5.614,-12.03 -3.21,-9.624 -1.605,-16.843 2.404,-22.457 l 12.833,-5.613 c 9.623,-3.211 16.842,-1.605 21.652,2.403 l 6.417,8.021 c 5.614,5.614 12.03,7.22 19.25,6.417 8.82,0 16.842,-3.21 24.063,-9.627 4.009,-8.82 6.416,-16.039 7.215,-22.456 6.42,-3.207 12.034,-8.821 17.647,-17.645 7.22,-8.821 9.623,-19.25 6.413,-30.478 -12.833,-12.031 -24.062,-20.851 -32.882,-26.465 -5.613,-4.013 -12.031,-11.228 -18.447,-20.855 -5.613,-5.614 -12.029,-11.228 -20.854,-16.04 -16.843,-9.623 -32.882,-11.228 -48.922,-6.417 0,-3.207 -0.803,-7.219 -2.404,-11.228 -3.21,-7.219 -7.219,-10.426 -12.833,-10.426 -2.407,-0.803 -4.013,-0.803 -5.614,0 -4.013,1.602 -8.023,4.812 -10.429,9.623 -7.219,16.04 -15.237,24.864 -22.456,28.873 l -28.069,19.25 c -20.054,16.842 -39.3,42.509 -58.553,75.391 l 1.016,-1.421 c -6.015,9.043 -9.033,18.166 -9.033,27.89 l -17.646,28.873 c -11.23,24.864 -14.438,51.329 -11.23,79.403 l 3.21,17.645 c 4.009,12.031 6.416,22.456 7.219,32.079 v 30.479 c 1.605,24.863 7.22,48.122 15.237,71.382 l 8.824,24.062 c 5.613,20.053 7.219,37.697 4.812,54.539 0,21.654 -3.206,34.487 -10.426,38.496 -1.604,8.021 -7.219,12.833 -16.043,14.438 l -8.821,4.813 c -5.243,4.491 -6.941,9.702 -5.192,16.245 -6.819,1.524 -13.625,3.087 -20.427,4.651 -10.804,2.739 -21.653,5.35 -32.36,8.257 -21.517,5.688 -42.854,11.686 -63.942,18.273 -21.089,6.593 -42.005,13.481 -62.684,20.809 C 79.432,813.806 38.755,829.701 0,848.479 l 0.792,1.268 C 40.9,833.476 82.21,819.158 124.021,805.986 c 20.822,-6.604 41.894,-12.819 63.094,-18.726 21.196,-5.908 42.522,-11.451 64.019,-16.622 10.691,-2.714 21.48,-5.168 32.32,-7.441 6.106,-1.285 12.207,-2.6 18.317,-3.888 4.254,3.321 12.438,4.908 25.134,4.243 H 324.5 c 2.404,0 4.813,0 7.22,-0.803 8.019,-1.604 15.237,-4.812 23.255,-10.43 l 8.824,-3.206 c 6.416,-2.408 12.833,-3.207 17.646,-3.207 0.724,0 1.627,-0.519 2.753,-1.5 l 13.935,-2.073 c 5.521,-0.893 11.041,-1.446 16.563,-2.185 11.041,-1.513 22.192,-2.623 33.233,-3.812 22.208,-2.135 44.479,-3.9 66.829,-4.64 11.148,-0.583 22.33,-0.647 33.517,-0.816 2.792,-0.075 5.585,0 8.374,0 l 8.374,0.104 c 5.6,0.104 11.186,0.05 16.771,0.349 l 16.749,0.659 c 5.581,0.233 11.148,0.698 16.72,1.036 l 6.081,0.402 1.521,1.241 c 5.612,5.614 8.018,10.431 7.219,16.043 3.207,8.821 0,15.237 -8.025,17.646 -2.403,0 -4.808,0.802 -8.018,1.604 -5.614,1.603 -10.426,4.813 -12.834,10.427 l -3.206,14.435 c -0.803,9.627 2.407,14.438 10.426,15.241 l 58.548,-3.211 1.605,-0.802 4.009,-0.8 c -1.602,0 -3.206,0 -4.009,0 2.407,-1.604 4.009,-2.407 4.812,-2.407 0,-0.804 0,-1.604 0,-3.206 0,-8.824 0.804,-20.054 3.21,-33.688 0.339,-10.608 0.828,-19.451 1.34,-26.559 12.313,1.647 24.598,3.479 36.814,5.585 21.901,3.829 43.595,8.288 65.08,13.381 15.432,3.721 30.74,7.771 45.916,12.12 l -0.772,14.723 c 1.604,9.623 6.412,13.636 14.435,12.833 l 12.03,0.803 c 8.823,-0.803 16.044,-4.814 22.457,-12.029 0.405,-0.313 0.74,-0.631 1.133,-0.947 10.246,3.47 20.424,7.083 30.521,10.84 20.392,7.611 40.41,15.795 60.063,24.558 19.691,8.688 38.845,18.179 57.378,28.436 l 1.012,-1.152 c -8.823,-5.763 -17.861,-11.243 -27.181,-16.465 z M 454.43,686.557 c -0.803,4.813 -5.613,8.02 -16.043,10.427 l -8.019,8.819 c -4.009,7.221 -4.009,13.637 0,18.447 0.058,0.011 0.107,0.02 0.166,0.032 -11.782,1.383 -23.528,2.937 -35.243,4.683 0.375,-1.141 0.591,-2.195 0.591,-3.108 l 2.407,-55.343 c 6.413,-24.062 11.229,-44.109 16.036,-59.351 l 23.263,-14.435 4.009,8.819 c 2.404,6.417 4.01,11.229 4.01,14.438 l 2.407,8.819 c 1.603,6.417 4.013,12.833 7.22,17.646 l 3.206,16.043 c 0.801,12.033 -0.002,20.051 -4.01,24.064 z m 59.519,30.938 c -7.027,0.317 -14.045,0.72 -21.057,1.166 l 0.036,-0.025 c 4.009,-1.604 7.215,-1.604 10.422,-1.604 6.421,-11.229 9.627,-19.246 9.627,-23.259 1.604,-23.26 2.407,-40.102 0.803,-48.923 l -4.009,-40.104 7.219,-6.416 9.623,10.429 c 8.823,7.216 18.446,9.623 28.873,6.417 l 16.04,52.131 c 9.166,24.261 18.691,41.235 28.34,51.002 -28.585,-1.598 -57.266,-1.871 -85.917,-0.814 z m 318.242,39.641 -1.966,3.923 c -4.75,-1.485 -9.508,-2.982 -14.313,-4.364 -5.344,-1.537 -10.663,-3.192 -16.054,-4.653 l -16.151,-4.405 c -10.854,-2.742 -21.625,-5.557 -32.666,-8 -5.474,-1.292 -10.965,-2.442 -16.515,-3.541 -5.55,-1.098 -11.041,-2.249 -16.591,-3.282 -12.888,-2.399 -25.856,-4.506 -38.878,-6.412 0.281,-2.671 0.536,-4.729 0.742,-6.157 1.602,-5.614 0.802,-11.229 -1.602,-15.24 -2.412,-4.01 -4.815,-9.624 -7.221,-15.237 -4.814,-8.823 -8.823,-20.053 -12.833,-32.083 -6.42,-24.062 -5.613,-44.913 2.404,-60.952 11.229,-5.613 16.842,-12.03 16.842,-19.25 l 12.833,26.466 c 8.824,9.627 20.054,19.25 34.491,28.073 29.675,24.063 51.328,38.496 64.965,43.309 l 11.229,3.21 36.093,42.503 2.407,12.833 c 0,9.623 -2.407,16.842 -7.216,23.259 z"
   id="path3408" />
	<rect
   x="0.001"
   fill="none"
   width="1024"
   height="1024"
   id="rect3410"
   y="0" />
</g>
</svg>
