<?xml version="1.0" encoding="UTF-8" standalone="no"?>
<svg
   xmlns:dc="http://purl.org/dc/elements/1.1/"
   xmlns:cc="http://creativecommons.org/ns#"
   xmlns:rdf="http://www.w3.org/1999/02/22-rdf-syntax-ns#"
   xmlns:svg="http://www.w3.org/2000/svg"
   xmlns="http://www.w3.org/2000/svg"
   xmlns:xlink="http://www.w3.org/1999/xlink"
   xmlns:sodipodi="http://sodipodi.sourceforge.net/DTD/sodipodi-0.dtd"
   xmlns:inkscape="http://www.inkscape.org/namespaces/inkscape"
   inkscape:version="1.0.2 (e86c870879, 2021-01-15, custom)"
   sodipodi:docname="logo.svg"
   xml:space="preserve"
   style="enable-background:new 0 0 128 128;"
   viewBox="0 0 128 128"
   y="0px"
   x="0px"
   id="Layer_1"
   version="1.1"><metadata
   id="metadata47"><rdf:RDF><cc:Work
       rdf:about=""><dc:format>image/svg+xml</dc:format><dc:type
         rdf:resource="http://purl.org/dc/dcmitype/StillImage" /><dc:title /></cc:Work></rdf:RDF></metadata><defs
   id="defs45"><linearGradient
     id="linearGradient104"
     inkscape:collect="always"><stop
       id="stop100"
       offset="0"
       style="stop-color:#406593;stop-opacity:1;" /><stop
       id="stop102"
       offset="1"
       style="stop-color:#406593;stop-opacity:0;" /></linearGradient><linearGradient
     gradientUnits="userSpaceOnUse"
     y2="-6.1035157e-06"
     x2="156.42875"
     y1="-6.1035157e-06"
     x1="-156.49682"
     id="linearGradient106"
     xlink:href="#linearGradient104"
     inkscape:collect="always" /></defs><sodipodi:namedview
   inkscape:current-layer="g40"
   inkscape:window-maximized="0"
   inkscape:window-y="108"
   inkscape:window-x="209"
   inkscape:cy="36.919327"
   inkscape:cx="-74.312024"
   inkscape:zoom="3.2786553"
   showgrid="false"
   id="namedview43"
   inkscape:window-height="1198"
   inkscape:window-width="2037"
   inkscape:pageshadow="2"
   inkscape:pageopacity="0"
   guidetolerance="10"
   gridtolerance="10"
   objecttolerance="10"
   borderopacity="1"
   bordercolor="#666666"
   pagecolor="#ffffff"
   inkscape:document-rotation="0" />
<style
   id="style10"
   type="text/css">
	.st0{fill-rule:evenodd;clip-rule:evenodd;fill:url(#SVGID_1_);}
	
		.st1{fill-rule:evenodd;clip-rule:evenodd;fill:none;stroke:#9C9C9C;stroke-width:0.5;stroke-linecap:round;stroke-linejoin:round;stroke-miterlimit:3;}
	.st2{fill:#CECECD;}
	.st3{fill-rule:evenodd;clip-rule:evenodd;fill:#E2E2E1;}
	.st4{fill-rule:evenodd;clip-rule:evenodd;fill:#33446B;}
</style>
<symbol
   viewBox="-156.5 -178.6 312.9 357.3"
   id="final_x5F_logo_x5F_1.ai_x2F_Illustrator_Sym">
	<g
   id="Layer_1_2_">
		<g
   id="g29">
			<g
   id="g27">
				<linearGradient
   y2="0"
   x2="156.2065"
   y1="0"
   x1="-156.2067"
   gradientUnits="userSpaceOnUse"
   id="SVGID_1_">
					<stop
   id="stop12"
   style="stop-color:#436D9D"
   offset="0" />
					<stop
   id="stop14"
   style="stop-color:#33446B"
   offset="0.1961" />
					<stop
   id="stop16"
   style="stop-color:#6E9DCD"
   offset="0.4745" />
					<stop
   id="stop18"
   style="stop-color:#33446B"
   offset="0.7137" />
					<stop
   id="stop20"
   style="stop-color:#6E9DCD"
   offset="1" />
				</linearGradient>
				<path
   id="path23"
   class="st0" />
				<path
   id="path25"
   class="st1" />
			</g>
		</g>
	</g>
</symbol>
<g
   id="g40"><path
   class="cls-1"
   d="m 0.14092201,104.58921 c 4.83182809,-2.34136 9.90357599,-4.32338 15.04218499,-6.18132 2.578155,-0.913666 5.18581,-1.772546 7.815095,-2.594358 2.629286,-0.821812 5.290035,-1.569503 7.972418,-2.27852 1.335292,-0.362565 2.688282,-0.688066 4.03537,-1.029685 1.356923,-0.312609 2.713851,-0.631667 4.082571,-0.915273 2.727613,-0.592995 5.484726,-1.10542 8.259534,-1.57756 a 119.61183,98.010116 0 0 1 16.87305,-1.754814 94.701468,77.598523 0 0 1 17.053975,0.631669 c 2.812173,0.346451 5.610583,0.762192 8.379493,1.27784 0.692229,0.128912 1.376589,0.272326 2.068818,0.409295 0.692225,0.136969 1.376588,0.280383 2.058981,0.441523 1.376585,0.304555 2.719746,0.655841 4.072736,0.997456 l 2.013757,0.549488 c 0.672555,0.182087 1.335295,0.388346 2.001955,0.580103 0.66666,0.191756 1.32743,0.399626 1.98622,0.605885 0.6588,0.206259 1.31759,0.422187 1.96655,0.64456 2.60962,0.887884 5.18188,1.843439 7.69907,2.882799 1.25269,0.528537 2.49753,1.069972 3.73645,1.633952 0.61553,0.28039 1.22714,0.56399 1.83481,0.85566 0.60767,0.29166 1.20353,0.5946 1.79349,0.89593 1.1937,0.61072 2.37757,1.2295 3.5398,1.88051 1.16224,0.651 2.28907,1.33424 3.38838,2.05292 l -0.12586,0.14341 a 83.52553,68.440944 0 0 0 -7.15434,-3.54507 q -3.67549,-1.6388 -7.48863,-3.06166 A 119.37978,97.819966 0 0 0 97.371381,93.352923 Q 93.353704,92.400587 89.257368,91.685125 C 86.527789,91.214598 83.774612,90.845588 81.0116,90.542644 L 78.932952,90.3525 C 78.586838,90.32349 78.240724,90.28482 77.89461,90.26387 l -1.042276,-0.06929 c -0.694195,-0.04189 -1.388389,-0.09991 -2.08455,-0.128913 l -2.088482,-0.08218 c -0.696161,-0.03706 -1.392323,-0.03062 -2.09045,-0.0435 l -1.04424,-0.01289 c -0.348081,0 -0.696162,-0.0097 -1.044242,0 -1.394288,0.02094 -2.788575,0.02901 -4.178931,0.101518 -2.78661,0.09185 -5.563385,0.312612 -8.332295,0.578492 -1.376589,0.14825 -2.766944,0.28683 -4.143532,0.475363 -0.688297,0.09185 -1.376589,0.16114 -2.064886,0.272326 l -2.060952,0.306168 c -2.741376,0.428631 -5.472922,0.895936 -8.182835,1.450258 -1.358895,0.257823 -2.704016,0.560767 -4.05504,0.844373 -1.351025,0.283604 -2.696147,0.589775 -4.029472,0.928167 -2.680418,0.64456 -5.3392,1.335847 -7.982253,2.072261 -2.643049,0.736401 -5.270368,1.511487 -7.866223,2.334907 -5.21334,1.64202 -10.3637496,3.42745 -15.36470149,5.4562 z"
   id="path6"
   style="fill:#33446b;stroke-width:0.178014" />
	
	
	
		<g
   transform="matrix(0.3583,0,0,-0.3583,64,64.000002)"
   style="fill:url(#linearGradient106);fill-opacity:1"
   id="sheild_1_">
	
</g>
	<path
   id="path38"
   d="M96.9,58.4c-0.9-0.1-1.2,0.6-0.8,2.2c0.4,1.6,0.4,3.2-0.1,5c-0.5,1.8,0.3,3.9,2.4,6.6c1.1,1.4,2.2,2.6,3.4,3.7   l0.2,0.2l3.6,3.6c0.3,0.2,0.6,0.4,0.9,0.5c0.2,0.1,0.8,0.6,1.8,1.4c1,0.8,1.7,1.6,2.3,2.5c-0.2,2.4-0.1,4.6,0.3,6.5   c0.1,0.9,0.3,1.7,0.6,2.2c0.2,1.3-0.6,2.7-2.4,4.1c-0.8,0.9-1.7,1.4-2.8,1.5l-1.5-0.1c-1,0.1-1.6-0.4-1.8-1.6l0.1-1.9l0.8-1.6   c0.6-0.8,0.9-1.7,0.9-2.9l-0.3-1.6l-4.5-5.3L98.6,83c-1.7-0.6-4.4-2.4-8.1-5.4c-1.8-1.1-3.2-2.3-4.3-3.5l-1.6-3.3   c0,0.9-0.7,1.7-2.1,2.4c-1,2-1.1,4.6-0.3,7.6c0.5,1.5,1,2.9,1.6,4c0.3,0.7,0.6,1.4,0.9,1.9c0.3,0.5,0.4,1.2,0.2,1.9   c-0.1,0.7-0.3,2.6-0.4,5.7c-0.3,1.7-0.4,3.1-0.4,4.2c0,0.2,0,0.3,0,0.4c-0.1,0-0.3,0.1-0.6,0.3c0.1,0,0.3,0,0.5,0l-0.5,0.1   l-0.2,0.1L76,99.8c-1-0.1-1.4-0.7-1.3-1.9l0.4-1.8c0.3-0.7,0.9-1.1,1.6-1.3c0.4-0.1,0.7-0.2,1-0.2c1-0.3,1.4-1.1,1-2.2   c0.1-0.7-0.2-1.3-0.9-2l-1.1-0.9c-1.8-0.5-3.6-3-5.3-7.5l-2-6.5c-1.3,0.4-2.5,0.1-3.6-0.8l-1.2-1.3l-0.9,0.8l0.5,5   c0.2,1.1,0.1,3.2-0.1,6.1c0,0.5-0.4,1.5-1.2,2.9c-0.4,0-0.8,0-1.3,0.2L61,88.8c-1.5,0.9-3.9,1-7.2,0.3c-0.5-0.6-0.5-1.4,0-2.3   l1-1.1c1.3-0.3,1.9-0.7,2-1.3c0.5-0.5,0.6-1.5,0.5-3l-0.4-2c-0.4-0.6-0.7-1.4-0.9-2.2l-0.3-1.1c0-0.4-0.2-1-0.5-1.8l-0.5-1.1   L51.8,75c-0.6,1.9-1.2,4.4-2,7.4l-0.3,6.9c0,0.4-0.3,1-0.8,1.6c-0.5,0.6-0.8,0.9-1,0.9c-0.6,0-1.4,0.1-2.2,0.4l-1.1,0.4   c-1,0.7-1.9,1.1-2.9,1.3c-0.3,0.1-0.6,0.1-0.9,0.1l0.3,0c-1.9,0.1-3-0.2-3.4-0.8l0.1-1.1c-0.3-0.9-0.1-1.6,0.6-2.2l1.1-0.6   c1.1-0.2,1.8-0.8,2-1.8c0.9-0.5,1.3-2.1,1.3-4.8c0.3-2.1,0.1-4.3-0.6-6.8l-1.1-3C39.9,70,39.2,67.1,39,64v-3.8   c-0.1-1.2-0.4-2.5-0.9-4L37.7,54c-0.4-3.5,0-6.8,1.4-9.9l2.2-3.6c0-1.4,0.5-2.7,1.5-4l-0.5,0.7c2.4-4.1,4.8-7.3,7.3-9.4l3.5-2.4   c0.9-0.5,1.9-1.6,2.8-3.6c0.3-0.6,0.8-1,1.3-1.2c0.2-0.1,0.4-0.1,0.7,0c0.7,0,1.2,0.4,1.6,1.3c0.2,0.5,0.3,1,0.3,1.4   c2-0.6,4-0.4,6.1,0.8c1.1,0.6,1.9,1.3,2.6,2c0.8,1.2,1.6,2.1,2.3,2.6c1.1,0.7,2.5,1.8,4.1,3.3c0.4,1.4,0.1,2.7-0.8,3.8   c-0.7,1.1-1.4,1.8-2.2,2.2c-0.1,0.8-0.4,1.7-0.9,2.8C70.1,41.6,69.1,42,68,42c-0.9,0.1-1.7-0.1-2.4-0.8l-0.8-1   c-0.6-0.5-1.5-0.7-2.7-0.3l-1.6,0.7c-0.5,0.7-0.7,1.6-0.3,2.8c0.2,0.6,0.4,1.1,0.7,1.5c1,1.1,2.5,2,4.4,2.5c0.8,0.5,2.1,0.9,3.7,1   c0.9,0,1.6,0,2.2,0c2.3-0.9,5.6-1.4,9.9-1.3c5.6,0.5,9.9,1.2,12.8,2.1c1.7,0.6,3.3,1.4,4.7,2.5v0c2.1,2,3.7,3.9,4.9,5.6   c1.2,1.7,2.3,4,3.4,6.8c1.1,2.8,1.7,4.4,1.8,4.8c0.1,0.4,0.3,0.9,0.5,1.3c0.3,0.8,0.7,1.7,1.2,2.6c0.1,0.3,0.3,0.5,0.4,0.8   c0.3,0.5,0.6,0.9,0.9,1.4c0,0.1,0.1,0.1,0.1,0.2c0.4,0.5,0.8,1,1.2,1.5c0.1,0.1,0.1,0.2,0.2,0.2c0.1,0.1,0.1,0.2,0.3,0.3   c0,0.1,0.1,0.1,0.2,0.2c0.3,0.3,0.6,0.5,0.9,0.8c0.3,0.2,0.8,0.6,1.6,1.3c0.8,0.6,2.1,1.3,3.8,1.9c1.8,0.7,3.3,1.3,4.7,2.1   c1.3,0.7,1.6,1.5,0.6,2.3c-0.9,0.8-3,0.7-6.2-0.4l-3.7-1.4v0c-0.4-0.1-0.7-0.3-1-0.5c-0.2-0.1-0.5-0.3-0.7-0.4   c-0.1-0.1-0.2-0.2-0.3-0.3c-0.3-0.2-0.6-0.5-0.9-0.7c-0.2-0.2-0.4-0.3-0.5-0.5c0,0,0,0,0,0c-0.3-0.3-0.5-0.6-0.8-0.8   c-0.3-0.3-0.6-0.6-0.8-0.9c-0.2-0.2-0.3-0.4-0.5-0.6c-0.3-0.3-0.5-0.7-0.8-1c-0.3-0.3-0.5-0.7-0.8-1c-0.1-0.2-0.2-0.3-0.3-0.5   c-0.2-0.3-0.5-0.7-0.7-1c-0.5-0.7-0.9-1.4-1.3-2.1c-0.1-0.3-0.3-0.5-0.4-0.8c-0.5-0.9-0.8-1.7-1.1-2.6c-0.1-0.4-0.3-0.8-0.4-1.3   c0,0,0-0.1,0-0.1c-1-3.6-2.1-6.2-3.5-7.8C99,59.3,97.8,58.5,96.9,58.4z"
   class="st4" />
</g>
</svg>
