<?xml version="1.0" encoding="utf-8"?>
<!-- Generator: Adobe Illustrator 16.0.0, SVG Export Plug-In . SVG Version: 6.00 Build 0)  -->
<!DOCTYPE svg PUBLIC "-//W3C//DTD SVG 1.1//EN" "http://www.w3.org/Graphics/SVG/1.1/DTD/svg11.dtd">
<svg version="1.1" id="Cybertracker_Logo" xmlns="http://www.w3.org/2000/svg" xmlns:xlink="http://www.w3.org/1999/xlink" x="0px"
	 y="0px" width="421.5px" height="421.5px" viewBox="0 0 421.5 421.5" enable-background="new 0 0 421.5 421.5"
	 xml:space="preserve">
<circle id="Black_Circle_Background" fill="#A0A0A0" cx="210.965" cy="210.965" r="208.347"/>
<path id="White_Circle" fill="#FFFFFF" d="M210.966,407.803c-108.537,0-196.839-88.301-196.839-196.837
	c0-108.537,88.302-196.839,196.839-196.839c108.536,0,196.837,88.302,196.837,196.839
	C407.803,319.502,319.502,407.803,210.966,407.803z M210.966,25.127c-102.472,0-185.839,83.367-185.839,185.839
	c0,102.471,83.367,185.837,185.839,185.837c102.471,0,185.837-83.366,185.837-185.837
	C396.803,108.494,313.437,25.127,210.966,25.127z"/>
<path id="Bushman" fill="#000000" d="M296.5,376.5c0,0-1.25-12-2.75-16.25s-2.583-10.834-2.583-13.584s-1.084-11.25-0.584-13.25
	c0.778-3.115-3.51-17.871-1.916-11.666c1.027,4-2.167-6-3.417-9.25s-2.75-5.25-3.5-9.75s-0.25-15-1.25-20s-2.75-8-4.25-12.25
	s-2.5-13.5-2.75-16.5s-0.381-7.211-1.808-8.338c-4.109-3.246-13.692-1.15-19.442-1.4s-15.246,0.356-21.246-0.394
	s-11.421-0.535-16.671-1.035s-9.667-0.084-14.917,0.083c-4.922,0.156-10.25-0.334-16.833-0.25
	c-6.184,0.079-12.842-0.676-19.841-1.52c-7.061-0.852-10.492-1.646-16.992-1.646s-12.418,0.106-14.917,0
	c-2.262-0.097-4.958,0.029-7.208-0.048s-3.065-0.131-5.618,0.056c-2.684,0.196-2.924-0.092-6.674-0.508
	c-3.379-0.375-4.208-0.75-6.583-1.25s-4.125-0.875-6.25-1.125s-4.042,0.583-5.167-0.792s0.042-2.875-0.583-4
	s-3.005-0.774-3.298-3.464c-0.208-1.917,0.714-3.494-0.286-4.619s-3.292-0.667-4.167-2.917s0.042-3.208,1.667-4.583
	s4.459-1.25,3.584-2.375s-3.5-2.445-8.5-2.91S69.75,210.25,70,208s8.772-2.727,11.5-2.375c10.666,1.375,16.833,3.791,16.833,3.791
	S94,196.476,98.5,195.333c2.791-0.709,2.875,4.417,4.75,7.917s7.25,13.375,9.5,14.875s2.5,2.375,6.125,2.375
	s19.5-0.125,23.125-0.375s26.5-3.625,33.125-4.125s15.11-2.488,20.375-1.375c10.938,2.313,4.639-1.5,4.594-2.625
	c-0.063-1.563,1.109-1.622,1.156-2.25c0.063-0.843-2.062-1.187-2.062-2.625c0-2.256,1.938-0.75,2.563-1.75s0.125-2,1.625-2.5
	s2-1,4.5-0.25s4.375,1.125,6.375,1.5s2,0.125,5.375,2s4.5,2.875,6.625,2.875s7.625,0,10.625,0.75s9.876,3.375,12.501,3.125
	s7.124-2.125,8.874-2.75s7.75-2.375,7.75-2.375s-1.125-0.75-1.25-2.125s-2.125-1.25-2.125-2.375s1.25-1.5,1-3s-2.75-1.875-3.25-2.75
	s-0.25-2,0.5-3.375s2.625-1.75,2.375-3.5s-2.25-2.25-2.25-4.5s0.75-5.25,1.125-7.125s-0.25-3.875-0.375-5.5s3.125-6.625,3.625-8.375
	s-0.009-2.857,0.875-4.625c1.584-3.167,7.835-5.75,16.084-8.375c3.995-1.271,21.41-2.838,26.541-1.875
	c11.542,2.167,16.875,15.75,17.875,19.5s0.668,4.875,0.543,7.5s0.249,4.958-0.584,7.708s-1.166,2.417-1.291,4.792
	s-1.168,6.75-0.168,9.125s2.75,7.875,5,8.5s5.248,0.163,7.625,1.875c8.042,5.792,18.543,18.833,19.376,24.083
	c0.705,4.446,0.499,19.042,0.249,23.417c-0.274,4.798-1.271,8.178-1.271,11.041c0,1.542,0.208,3.396,0.146,4.709
	c-0.065,1.382,0.041,4.229-0.042,6.604c-0.125,3.577-0.208,5.646,0.667,8.146s11.833,23.583,11.833,23.583
	S356.667,329.5,342.5,343.667C321.834,364.334,296.5,376.5,296.5,376.5z"/>
<g id="Bow">
	<path fill="#000000" d="M183.5,366.168c0,0-91.157-79.001-91.157-158.538C92.343,119.833,156.167,43,156.167,43h2.167
		c0,0-60.167,80.166-59.583,164.875c0.527,76.644,85.917,155.292,85.917,155.292L183.5,366.168z"/>
	<polygon fill="#000000" points="173.313,352.281 171.666,350.623 206.991,207.918 144.885,62.26 146.188,60.167 209.093,207.749 
		209.013,208.074 	"/>
</g>
<g id="Arrow">
	<rect x="39" y="207" fill="#000000" width="169.042" height="2"/>
	<polygon fill="#000000" points="42.833,212.208 28.667,208 42.833,203.75 39.167,208 	"/>
</g>
</svg>
