<?xml version="1.0" encoding="utf-8"?>
<!-- Generator: Adobe Illustrator 13.0.0, SVG Export Plug-In . SVG Version: 6.00 Build 14948)  -->
<!DOCTYPE svg PUBLIC "-//W3C//DTD SVG 1.1//EN" "http://www.w3.org/Graphics/SVG/1.1/DTD/svg11.dtd">
<svg version="1.1" id="Layer_1" xmlns="http://www.w3.org/2000/svg" xmlns:xlink="http://www.w3.org/1999/xlink" x="0px" y="0px"
	 width="1024px" height="1024px" viewBox="0 0 1024 1024" enable-background="new 0 0 1024 1024" xml:space="preserve">
<g>
	<g>
		<circle id="Black_Circle_Background" fill="#A09F9F" cx="511.999" cy="512" r="512"/>
		<path id="White_Circle" fill="#FFFFFF" d="M512.002,995.716c-266.721,0-483.72-216.993-483.72-483.715
			c0-266.722,216.999-483.719,483.72-483.719s483.714,216.997,483.714,483.719C995.716,778.723,778.723,995.716,512.002,995.716z
			 M512.002,55.314c-251.818,0-456.688,204.869-456.688,456.687c0,251.818,204.869,456.685,456.688,456.685
			c251.817,0,456.684-204.865,456.684-456.685C968.685,260.184,763.819,55.314,512.002,55.314z"/>
		<path d="M870.874,699.465c-2.15-6.144-1.946-11.227-1.64-20.02c0.203-5.836-0.059-12.832,0.104-16.229
			c0.153-3.226-0.356-7.782-0.356-11.572c0-7.035,2.446-15.342,3.122-27.132c0.613-10.752,1.12-46.62-0.612-57.546
			c-2.047-12.902-27.854-44.949-47.615-59.183c-5.841-4.207-13.208-3.072-18.737-4.608c-5.528-1.535-9.83-15.052-12.287-20.888
			c-2.457-5.837,0.105-16.588,0.412-22.424c0.309-5.837,1.126-5.02,3.174-11.776c2.047-6.757,1.128-12.491,1.436-18.942
			c0.307-6.449,1.123-9.215-1.335-18.431c-2.457-9.215-15.563-42.595-43.927-47.92c-12.608-2.366-55.404,1.484-65.224,4.608
			c-20.271,6.45-35.633,12.798-39.524,20.58c-2.172,4.346-0.922,7.065-2.15,11.366c-1.229,4.302-9.215,16.588-8.908,20.581
			c0.309,3.993,1.844,8.908,0.922,13.517c-0.922,4.607-2.765,11.979-2.765,17.51s4.915,6.758,5.529,11.058
			c0.613,4.301-3.993,5.224-5.837,8.603s-2.457,6.144-1.229,8.294c1.228,2.149,7.372,3.07,7.987,6.758
			c0.613,3.687-2.458,4.607-2.458,7.372s4.915,2.458,5.223,5.837s3.071,5.222,3.071,5.222s-14.744,4.302-19.045,5.837
			s-15.356,6.145-21.809,6.759c-6.451,0.613-23.348-5.837-30.721-7.681c-7.372-1.843-20.888-1.843-26.109-1.843
			c-5.223,0-7.986-2.458-16.28-7.064c-8.294-4.607-8.294-3.993-13.208-4.915c-4.915-0.923-9.523-1.844-15.667-3.688
			c-1.015-0.304-1.884-0.518-2.662-0.668L353.481,142.99c17.154-27.729,29.181-43.754,29.181-43.754h-5.325
			c0,0-156.088,187.91-156.835,403.02h-6.742c-5.643-1.203-12.309-2.397-19.912-3.379c-5.562-0.718-20.908-0.031-26.334,3.379
			H91.937l6.89-7.987l-34.813,10.444l34.813,10.341l-6.868-7.883h74.808c4.034,3.297,17.539,3.884,27.696,4.828
			c12.287,1.143,18.738,4.387,20.889,7.151c2.149,2.765-4.814,2.458-8.808,5.837s-6.247,5.731-4.097,11.262
			c2.15,5.53,7.782,4.404,10.24,7.169c2.457,2.765,0.191,6.64,0.703,11.351c0.72,6.609,6.568,5.748,8.104,8.514
			c1.535,2.765-1.332,6.451,1.433,9.83c1.664,2.034,4.037,2.1,6.799,1.966c42.199,168.749,214.78,318.324,214.78,318.324l2.87-7.375
			c0,0-10.869-10.013-27.672-27.693l66.325-267.906c11.854-0.445,22.164-1.265,34.247-0.112c12.9,1.229,26.223,0.699,40.968,2.543
			c14.744,1.844,38.08,0.354,52.211,0.968c14.13,0.614,37.68-4.536,47.776,3.44c3.508,2.771,3.829,13.117,4.443,20.489
			c0.614,7.373,3.071,30.104,6.758,40.548c3.687,10.444,7.986,17.816,10.444,30.104c2.457,12.288,1.229,38.091,3.071,49.148
			c1.842,11.059,5.528,15.974,8.602,23.96c3.071,7.986,10.919,32.562,8.396,22.731c-3.919-15.249,6.62,21.013,4.709,28.668
			c-1.229,4.915,1.435,25.804,1.435,32.563c0,6.758,2.661,22.938,6.348,33.382c3.688,10.442,6.759,39.933,6.759,39.933
			s62.257-29.896,113.042-80.685c34.813-34.814,64.715-80.688,64.715-80.688S873.024,705.608,870.874,699.465z M486.829,507.171
			c0.774,0.575,1.35,1.138,1.297,1.843c-0.115,1.543-2.995,1.688-2.842,5.529c0.109,2.765,15.59,12.134-11.289,6.45
			c-12.939-2.735-33.789,2.149-50.07,3.38c-16.28,1.229-72.494,9.521-81.401,10.137c-8.908,0.615-47.92,0.921-56.829,0.921
			c-8.908,0-9.522-2.148-15.052-5.836c-3.485-2.323-10.021-12.822-15.531-22.424H486.829L486.829,507.171z M496.479,491.01
			c-0.951,0.296-1.904,0.701-3.128,1.109c-3.687,1.229-2.458,3.686-3.993,6.144c-1.504,2.406-6.094-1.07-6.281,3.993H252.331
			c-2.066-3.702-3.84-6.985-5.034-9.216c-4.249-7.932-4.76-19.252-10.192-19.601c8.218-133.823,72.863-259.079,113.193-325.265
			L496.479,491.01z M246.186,576.822c1.512,0.308,3.084,0.639,4.798,1c5.836,1.229,7.873,2.148,16.177,3.07
			c9.216,1.022,9.804,1.73,16.4,1.248c6.276-0.461,8.277-0.325,13.807-0.137c5.53,0.189,12.151-0.122,17.713,0.117
			c6.142,0.26,20.685,0,36.658,0c15.973,0,24.405,1.951,41.757,4.047c17.2,2.073,33.56,3.928,48.758,3.733
			c14.986-0.191,27.325,0.826,38.678,0.672l-65.23,263.517C367.004,802.195,276.234,693.541,246.186,576.822z"/>
	</g>
	<rect fill="none" width="1024" height="1024"/>
</g>
</svg>
