<svg id="cc32a1a3-91ab-4a9a-be84-0a0e794d64e3" data-name="Layer 1" xmlns="http://www.w3.org/2000/svg" width="192" height="210.1" viewBox="0 0 192 210.1"><title>nailsma-logo</title><polygon points="36.7 19.3 24.2 0.4 19.9 0.4 19.9 26.2 23.8 26.2 23.8 6.5 36.8 26.2 40.6 26.2 40.6 0.4 36.7 0.4 36.7 19.3" style="fill:#9f3515"/><path d="M53.8.4,42.3,26.2h4.6l3.4-8.3H60.8l3.5,8.3h4.2L57.5.4Zm5.5,14H52l3.7-8.8Z" style="fill:#9f3515"/><rect x="70.3" y="0.4" width="3.8" height="25.82" style="fill:#9f3515"/><path d="M82,21.9a3,3,0,0,1-1-2V.4H77.2V19.5c0,4.1,2.8,6.7,7,6.7h7.7V22.5H84.2A3.3,3.3,0,0,1,82,21.9Z" style="fill:#9f3515"/><path d="M103.7,11.2l-3-.9a3,3,0,0,1-2.3-3.1,3.1,3.1,0,0,1,1.1-2.5,3.5,3.5,0,0,1,2.6-1,3.4,3.4,0,0,1,2.4,1.1,3.3,3.3,0,0,1,1,2.5V8h4V7.4a7.1,7.1,0,0,0-2.1-5.1A7.1,7.1,0,0,0,102.2,0H102a7.3,7.3,0,0,0-5.1,2.1,6.5,6.5,0,0,0-2.2,5.1,6.6,6.6,0,0,0,4.9,6.6l2.6.8c2.7.8,4,2.2,4,4.1a3.8,3.8,0,0,1-1.2,3,4,4,0,0,1-2.9,1.2h-.1A3.9,3.9,0,0,1,99,21.6a4.1,4.1,0,0,1-1.2-3v-.7h-4v.7a8,8,0,0,0,13.7,5.7,7.5,7.5,0,0,0,2.3-5.6C109.9,15,107.8,12.5,103.7,11.2Z" style="fill:#9f3515"/><polygon points="126.5 20.4 118.1 0.4 113.1 0.4 113.1 26.2 117 26.2 117 7.3 125 26.2 128 26.2 136.2 7.2 136.2 26.2 140 26.2 140 0.4 135.1 0.4 126.5 20.4" style="fill:#9f3515"/><path d="M157.5.4h-3.6L142.4,26.2H147l3.4-8.3h10.4l3.5,8.3h4.2Zm1.9,14H152l3.7-8.8Z" style="fill:#9f3515"/><rect x="19.9" y="132.1" width="2.9" height="18.79" style="fill:#9f3515"/><polygon points="37.7 145.7 28.7 132.1 25.5 132.1 25.5 150.8 28.4 150.8 28.4 136.7 37.8 150.8 40.6 150.8 40.6 132.1 37.7 132.1 37.7 145.7" style="fill:#9f3515"/><path d="M49,132.1H43.3v18.8h6.5a9.5,9.5,0,0,0,9.4-9.4,8.8,8.8,0,0,0-2.9-6.7A10.4,10.4,0,0,0,49,132.1Zm7.4,9.2a6.5,6.5,0,0,1-1.9,4.8,6.2,6.2,0,0,1-4.7,2H46.1V134.8h3.2a7.1,7.1,0,0,1,5,1.9A6.1,6.1,0,0,1,56.3,141.2Z" style="fill:#9f3515"/><rect x="61.5" y="132.1" width="2.9" height="18.79" style="fill:#9f3515"/><path d="M73.5,144.3h9.7a7.4,7.4,0,0,1-2.5,2.8,5.9,5.9,0,0,1-4,1.3,7.9,7.9,0,0,1-5.1-2.2,6.2,6.2,0,0,1-2-4.8,6.7,6.7,0,0,1,2.2-4.9,6.9,6.9,0,0,1,4.9-2,6.8,6.8,0,0,1,6,3.1l.2.2h3.2l-.4-.8a9.9,9.9,0,0,0-3.8-4.1,10.3,10.3,0,0,0-5.1-1.2,9.8,9.8,0,0,0-7,2.8,9.4,9.4,0,0,0-2.9,6.9,9.1,9.1,0,0,0,3,6.9,10.1,10.1,0,0,0,7,2.9h.1a9.9,9.9,0,0,0,6-2.1,9.4,9.4,0,0,0,3.8-6.9v-.6H73.5Zm3.3,6.4h0Z" style="fill:#9f3515"/><path d="M88.8,137v9c0,3,2,4.9,5.1,4.9h5.6v-2.7H93.9a2.3,2.3,0,0,1-1.5-.4,2.2,2.2,0,0,1-.7-1.5v-3.6h5.9v-2.8H91.6v-3.3a2.2,2.2,0,0,1,.7-1.5,2.3,2.3,0,0,1,1.6-.4h5.6v-2.7H93.9C90.8,132.1,88.8,134,88.8,137Z" style="fill:#9f3515"/><polygon points="113.8 145.7 104.9 132.1 101.7 132.1 101.7 150.8 104.6 150.8 104.6 136.7 113.9 150.8 116.7 150.8 116.7 132.1 113.8 132.1 113.8 145.7" style="fill:#9f3515"/><path d="M128.7,131.8a9.8,9.8,0,0,0-9.8,9.8,9.1,9.1,0,0,0,2.9,6.8,9.8,9.8,0,0,0,7,2.8,9.5,9.5,0,0,0,6.9-2.9,9.6,9.6,0,0,0,2.9-7,8.9,8.9,0,0,0-3-6.7A9.9,9.9,0,0,0,128.7,131.8Zm7.1,9.6a6.6,6.6,0,0,1-2.1,4.9,6.8,6.8,0,0,1-5,2h0a6.9,6.9,0,0,1-4.9-2.1,6.8,6.8,0,0,1,0-9.7,6.7,6.7,0,0,1,4.9-2,6.9,6.9,0,0,1,5,2A6.6,6.6,0,0,1,135.9,141.4Z" style="fill:#9f3515"/><path d="M151.3,144.5a3.8,3.8,0,0,1-1.1,2.8,3.4,3.4,0,0,1-2.6,1.1,3.4,3.4,0,0,1-2.6-1.2,4.4,4.4,0,0,1-1.1-3V132h-2.8v12.5a6.6,6.6,0,0,0,1.9,4.7,6.2,6.2,0,0,0,4.6,1.9h.1a6.3,6.3,0,0,0,4.6-1.9,6.4,6.4,0,0,0,2-4.8V132h-2.8Zm-3.7,6.1h0Z" style="fill:#9f3515"/><path d="M164,139.9l-2.1-.7a2.1,2.1,0,0,1-1.7-2.2,2.2,2.2,0,0,1,.7-1.8,2.4,2.4,0,0,1,1.7-.7h.2a2.4,2.4,0,0,1,1.7.8,2.3,2.3,0,0,1,.7,1.8v.6h3v-.5a5.4,5.4,0,0,0-5.4-5.4,5.3,5.3,0,0,0-3.7,1.5,4.7,4.7,0,0,0-1.6,3.7,4.9,4.9,0,0,0,3.6,4.8l1.9.6c1.9.6,2.8,1.6,2.9,2.9a2.7,2.7,0,0,1-.9,2.1,2.9,2.9,0,0,1-2.2.9h0a2.8,2.8,0,0,1-2.1-.9,2.9,2.9,0,0,1-.8-2.1v-.6h-3v.5a5.9,5.9,0,0,0,10,4.2,5.5,5.5,0,0,0,1.7-4.1C168.5,142.7,167,140.8,164,139.9Z" style="fill:#9f3515"/><path d="M22.6,168.5a1.7,1.7,0,0,1-.6-1.2v-11H19.9v10.8a3.6,3.6,0,0,0,4,3.8h4.3v-2H23.9A1.8,1.8,0,0,1,22.6,168.5Z" style="fill:#9f3515"/><path d="M36.5,156.3,30,170.9h2.6l1.9-4.7h5.9l2,4.7h2.3l-6.2-14.6Zm3.1,7.9H35.4l2.1-5Z" style="fill:#9f3515"/><polygon points="56 167.1 48.9 156.3 46.5 156.3 46.5 170.9 48.7 170.9 48.7 159.7 56 170.9 58.1 170.9 58.1 156.3 56 156.3 56 167.1" style="fill:#9f3515"/><path d="M65.1,156.3H60.7v14.5h5a7.3,7.3,0,0,0,7.3-7.3,6.8,6.8,0,0,0-2.3-5.2A8.1,8.1,0,0,0,65.1,156.3Zm5.8,7.1a5.1,5.1,0,0,1-1.5,3.8,4.9,4.9,0,0,1-3.7,1.6H62.8V158.4h2.5a5.7,5.7,0,0,1,3.9,1.5A4.8,4.8,0,0,1,70.9,163.4Z" style="fill:#9f3515"/><path d="M85.3,156.3l-6.5,14.6h2.6l1.9-4.7h5.9l2,4.7h2.3l-6.2-14.6Zm3.1,7.9H84.2l2.1-5Z" style="fill:#9f3515"/><polygon points="105.2 167.1 98.1 156.3 95.7 156.3 95.7 170.9 97.9 170.9 97.9 159.7 105.3 170.9 107.4 170.9 107.4 156.3 105.2 156.3 105.2 167.1" style="fill:#9f3515"/><path d="M114.7,156.3h-4.4v14.5h5a7.3,7.3,0,0,0,7.3-7.3,6.8,6.8,0,0,0-2.3-5.2A8.1,8.1,0,0,0,114.7,156.3Zm5.8,7.1a5.1,5.1,0,0,1-1.5,3.8,4.9,4.9,0,0,1-3.7,1.6h-2.9V158.4h2.5a5.7,5.7,0,0,1,3.9,1.5A4.8,4.8,0,0,1,120.5,163.4Z" style="fill:#9f3515"/><path d="M137.7,162.5,136,162a1.7,1.7,0,0,1-1.3-1.8,1.8,1.8,0,0,1,.6-1.4,2,2,0,0,1,1.4-.6h.1a1.9,1.9,0,0,1,1.4.6,1.9,1.9,0,0,1,.5,1.4v.4h2.2v-.4a4.1,4.1,0,0,0-4.1-4.1,4.1,4.1,0,0,0-2.9,1.2,3.6,3.6,0,0,0-1.2,2.9,3.7,3.7,0,0,0,2.7,3.7l1.5.4c1.5.5,2.3,1.2,2.3,2.4a2.2,2.2,0,0,1-.7,1.7,2.3,2.3,0,0,1-1.7.7h0a2.3,2.3,0,0,1-1.7-.7,2.3,2.3,0,0,1-.7-1.7v-.4h-2.2v.4a4.5,4.5,0,0,0,7.7,3.2,4.2,4.2,0,0,0,1.3-3.1C141.1,164.6,140,163.2,137.7,162.5Z" style="fill:#9f3515"/><path d="M143.4,160.1v7a3.6,3.6,0,0,0,3.9,3.8h4.3v-2h-4.3a1.8,1.8,0,0,1-1.2-.3,1.8,1.8,0,0,1-.6-1.2v-2.8h4.6v-2h-4.6v-2.6a1.8,1.8,0,0,1,.6-1.2,1.8,1.8,0,0,1,1.3-.3h4.3v-2h-4.3A3.6,3.6,0,0,0,143.4,160.1Z" style="fill:#9f3515"/><path d="M162.3,156.3h-2l-6.5,14.6h2.6l1.9-4.7h5.9l2,4.7h2.3Zm1.1,7.9h-4.3l2.1-5Z" style="fill:#9f3515"/><polygon points="34.9 176.6 33.4 176.6 28.2 188.6 23.1 176.6 21.6 176.6 21.4 176.6 19.9 176.6 19.9 192.6 22.5 192.6 22.5 181.5 27.2 192.6 29.2 192.6 34 181.5 34 192.6 36.6 192.6 36.6 176.6 35.1 176.6 34.9 176.6" style="fill:#9f3515"/><path d="M44.9,176.6l-7.2,16h3.1l2.1-5h6.2l2.1,5h2.8l-6.8-16Zm-.9,8.6,2.1-4.9,2,4.9Z" style="fill:#9f3515"/><polygon points="65.9 187.9 58.5 176.6 55.6 176.6 55.6 192.6 58.3 192.6 58.3 180.8 66 192.6 68.5 192.6 68.5 176.6 65.9 176.6 65.9 187.9" style="fill:#9f3515"/><path d="M77.5,176.6l-7.2,16h3.1l2.1-5h6.2l2.1,5h2.8l-6.8-16Zm-.9,8.6,2.1-4.9,2,4.9Z" style="fill:#9f3515"/><path d="M91.7,187h8.1a6.3,6.3,0,0,1-2,2.2,4.9,4.9,0,0,1-3.4,1.1,6.5,6.5,0,0,1-4.3-1.8,5.2,5.2,0,0,1-1.7-4,5.6,5.6,0,0,1,1.8-4,5.7,5.7,0,0,1,4.1-1.7,5.6,5.6,0,0,1,5,2.6l.2.2h2.9l-.4-.8a8.4,8.4,0,0,0-3.2-3.5,8.8,8.8,0,0,0-4.3-1,8.4,8.4,0,0,0-6,2.4,8,8,0,0,0-2.5,5.9,7.7,7.7,0,0,0,2.5,5.9,8.6,8.6,0,0,0,6,2.4h.1a8.5,8.5,0,0,0,5.1-1.8,8,8,0,0,0,3.2-5.9v-.6H91.7Zm2.9,5.3h0Z" style="fill:#9f3515"/><path d="M104.5,180.8v7.6a4,4,0,0,0,4.4,4.2h4.8v-2.5h-4.8a1.9,1.9,0,0,1-1.2-.3,1.8,1.8,0,0,1-.6-1.2v-2.9h5v-2.5h-5v-2.7a1.8,1.8,0,0,1,.6-1.2,1.9,1.9,0,0,1,1.3-.3h4.8v-2.5h-4.8A4,4,0,0,0,104.5,180.8Z" style="fill:#9f3515"/><polygon points="130.3 176.6 128.8 176.6 123.6 188.6 118.5 176.6 117 176.6 116.8 176.6 115.3 176.6 115.3 192.6 117.9 192.6 117.9 181.5 122.6 192.6 124.6 192.6 129.4 181.5 129.4 192.6 132 192.6 132 176.6 130.5 176.6 130.3 176.6" style="fill:#9f3515"/><path d="M133.9,180.8v7.6a4,4,0,0,0,4.4,4.2h4.8v-2.5h-4.8a1.9,1.9,0,0,1-1.2-.3,1.8,1.8,0,0,1-.6-1.2v-2.9h5v-2.5h-5v-2.7a1.8,1.8,0,0,1,.6-1.2,1.9,1.9,0,0,1,1.3-.3h4.8v-2.5h-4.8A4,4,0,0,0,133.9,180.8Z" style="fill:#9f3515"/><polygon points="155 187.9 147.6 176.6 144.7 176.6 144.7 192.6 147.3 192.6 147.3 180.8 155.1 192.6 157.6 192.6 157.6 176.6 155 176.6 155 187.9" style="fill:#9f3515"/><polygon points="159.1 176.6 159.1 179.1 162.5 179.1 162.5 192.6 165.1 192.6 165.1 179.1 168.5 179.1 168.5 176.6 159.1 176.6" style="fill:#9f3515"/><path d="M99.4,198.1l-5.2,11.7h2.2l1.6-3.7h4.7l1.6,3.7h2l-5-11.7Zm2.5,6.3H98.7l1.6-3.9Z" style="fill:#be9969"/><path d="M109.1,207.9a1.3,1.3,0,0,1-.5-.9v-8.9h-1.8v8.7a2.9,2.9,0,0,0,3.2,3.1h3.5v-1.7h-3.5A1.5,1.5,0,0,1,109.1,207.9Z" style="fill:#be9969"/><path d="M116.7,207.9a1.3,1.3,0,0,1-.5-.9v-8.9h-1.8v8.7a2.9,2.9,0,0,0,3.2,3.1h3.5v-1.7h-3.5A1.5,1.5,0,0,1,116.7,207.9Z" style="fill:#be9969"/><rect x="122" y="198.1" width="1.8" height="11.74" style="fill:#be9969"/><path d="M130.4,198.1l-5.2,11.7h2.2l1.6-3.7h4.7l1.6,3.7h2l-5-11.7Zm2.5,6.3h-3.3l1.6-3.9Z" style="fill:#be9969"/><polygon points="145.7 206.6 140.1 198.1 138.1 198.1 138.1 209.8 139.9 209.8 139.9 201 145.7 209.8 147.5 209.8 147.5 198.1 145.7 198.1 145.7 206.6" style="fill:#be9969"/><path d="M158.4,206.5a4.2,4.2,0,0,1-1.5,1.3,4.2,4.2,0,0,1-5.1-.8,4.2,4.2,0,0,1-1.2-3.1,4.2,4.2,0,0,1,1.3-3,4.1,4.1,0,0,1,3-1.2,4,4,0,0,1,3.5,1.8h2.1l-.3-.5a5.9,5.9,0,0,0-2.1-2.3,6.1,6.1,0,0,0-3.2-.9,5.9,5.9,0,0,0-6,6,6,6,0,0,0,1.8,4.3,5.7,5.7,0,0,0,4.2,1.8h.1a6,6,0,0,0,5.3-3.2l.3-.5h-2.1Zm-3.6,3.2h0Z" style="fill:#be9969"/><path d="M164,200.1a1.4,1.4,0,0,1,1-.2h3.5v-1.7H165a2.9,2.9,0,0,0-3.2,3.1v5.6a2.9,2.9,0,0,0,3.2,3.1h3.5v-1.7H165a1.4,1.4,0,0,1-1-.2,1.4,1.4,0,0,1-.5-.9v-2.2h3.7V203h-3.7v-2A1.4,1.4,0,0,1,164,200.1Z" style="fill:#be9969"/><polygon points="26.9 122.5 22 115 20.1 115 20.1 125.5 21.8 125.5 21.8 117.7 27 125.5 28.6 125.5 28.6 115 26.9 115 26.9 122.5" style="fill:#be9969"/><path d="M36.1,114.8a5.5,5.5,0,0,0-5.5,5.5,5.1,5.1,0,0,0,1.6,3.8,5.5,5.5,0,0,0,3.9,1.6,5.3,5.3,0,0,0,3.9-1.6,5.4,5.4,0,0,0,1.6-3.9,5,5,0,0,0-1.7-3.8A5.6,5.6,0,0,0,36.1,114.8Zm4,5.4a3.6,3.6,0,0,1-1.1,2.7,3.7,3.7,0,0,1-2.8,1.1h0a3.8,3.8,0,0,1-2.7-1.1,3.7,3.7,0,0,1,0-5.4,3.7,3.7,0,0,1,2.7-1.1,3.8,3.8,0,0,1,2.7,1.1A3.6,3.6,0,0,1,40,120.2Z" style="fill:#be9969"/><path d="M50,120.8a3.3,3.3,0,0,0,.9-2.2,3.3,3.3,0,0,0-1.1-2.6,4.1,4.1,0,0,0-2.8-1H43.4v10.6h1.7v-5.1l3.8,5.1H51l-2.8-3.8A3.1,3.1,0,0,0,50,120.8Zm-4.8-4.2H47a2.2,2.2,0,0,1,1.6.5,1.7,1.7,0,0,1,.6,1.3,1.7,1.7,0,0,1-.6,1.4,2.7,2.7,0,0,1-1.8.6H45.1Z" style="fill:#be9969"/><polygon points="52.6 116.6 54.9 116.6 54.9 125.5 56.5 125.5 56.5 116.6 58.8 116.6 58.8 115 52.6 115 52.6 116.6" style="fill:#be9969"/><polygon points="66.3 119.4 62 119.4 62 115 60.3 115 60.3 125.5 62 125.5 62 121 66.3 121 66.3 125.5 68 125.5 68 115 66.3 115 66.3 119.4" style="fill:#be9969"/><path d="M82.7,115,78,125.5h2l1.4-3.3h4.1l1.4,3.3h1.8L84.3,115Zm-.6,5.7,1.4-3.3,1.4,3.3Z" style="fill:#be9969"/><path d="M95.8,121.9a2.1,2.1,0,0,1-.6,1.5,1.9,1.9,0,0,1-1.4.6,1.8,1.8,0,0,1-1.4-.6,2.4,2.4,0,0,1-.6-1.7v-6.8H90.1v7a3.7,3.7,0,0,0,1,2.7,3.5,3.5,0,0,0,2.6,1.1h.1a3.5,3.5,0,0,0,2.6-1,3.6,3.6,0,0,0,1.1-2.7v-7H95.8Zm-2,3.4h0Z" style="fill:#be9969"/><path d="M103.5,119.4l-1.2-.4a1.1,1.1,0,0,1-.9-1.2,1.2,1.2,0,0,1,.4-1,1.4,1.4,0,0,1,1-.4h0a1.3,1.3,0,0,1,.9.4,1.3,1.3,0,0,1,.4,1v.3h1.7v-.3a3,3,0,0,0-3-3,3,3,0,0,0-2.1.8,2.7,2.7,0,0,0-.9,2.1,2.8,2.8,0,0,0,2,2.7l1.1.3c1,.3,1.6.9,1.6,1.6a1.5,1.5,0,0,1-.5,1.2,1.6,1.6,0,0,1-1.2.5h0a1.5,1.5,0,0,1-1.1-.5,1.6,1.6,0,0,1-.5-1.2v-.3H99.4v.3a3.3,3.3,0,0,0,5.6,2.4,3.1,3.1,0,0,0,1-2.3A3.1,3.1,0,0,0,103.5,119.4Z" style="fill:#be9969"/><polygon points="107.7 116.6 110 116.6 110 125.5 111.6 125.5 111.6 116.6 113.9 116.6 113.9 115 107.7 115 107.7 116.6" style="fill:#be9969"/><path d="M122,120.8a3.3,3.3,0,0,0,.9-2.2,3.3,3.3,0,0,0-1.1-2.6,4.1,4.1,0,0,0-2.8-1h-3.5v10.6h1.7v-5.1l3.8,5.1h2.1l-2.8-3.8A3.1,3.1,0,0,0,122,120.8Zm-4.8-4.2H119a2.2,2.2,0,0,1,1.6.5,1.7,1.7,0,0,1,.6,1.3,1.7,1.7,0,0,1-.6,1.4,2.7,2.7,0,0,1-1.8.6h-1.6Z" style="fill:#be9969"/><path d="M129.5,115l-4.7,10.6h2l1.4-3.3h4.1l1.4,3.3h1.8L131,115Zm-.6,5.7,1.4-3.3,1.4,3.3Z" style="fill:#be9969"/><path d="M138.9,123.7a1.2,1.2,0,0,1-.4-.8v-8h-1.7v7.8a2.7,2.7,0,0,0,2.9,2.8h3.2v-1.6h-3.2A1.2,1.2,0,0,1,138.9,123.7Z" style="fill:#be9969"/><rect x="144.1" y="115" width="1.7" height="10.57" style="fill:#be9969"/><path d="M152.6,115l-4.7,10.6h2l1.4-3.3h4.1l1.4,3.3h1.8L154.2,115Zm-.6,5.7,1.4-3.3,1.4,3.3Z" style="fill:#be9969"/><polygon points="166.8 115 166.8 122.5 161.9 115 160 115 160 125.5 161.7 125.5 161.7 117.7 166.9 125.5 168.5 125.5 168.5 115 166.8 115" style="fill:#be9969"/><path d="M19.3,70.5c0,7.9,0,8.7,0,15.2l.9-.4A62.8,62.8,0,0,1,42.4,81l3.9.2,4.8.3c5.1,0,8.5-1.1,10.1-3.4s1.5-4,.6-6.8c-2.7-8.6-4.4-15.3-2.3-23.5,1.6-6.4,8.1-6.5,15-6.6h4.9a61.5,61.5,0,0,1,11.9,1.7c4.6,1,9.4,2,13.8,1.9h.2a9.3,9.3,0,0,1,7.1,2.7c2.8,3,3.2,7.7,3.1,11.1v1.1c-.3,6.8-.5,11-3.1,18.3a7.4,7.4,0,0,0,.9,7c2.9,4.1,9.1,5.9,14.1,5.9H129a12.6,12.6,0,0,0,9.7-5.6,19.2,19.2,0,0,0,2.8-11.6,137.7,137.7,0,0,1,1.2-27.4c.7-4.2,3.6-6.3,8.7-6.3a25.3,25.3,0,0,1,6.5,1c3.9,1.1,7.1,4.8,10.1,9.4.9-6.4,4.2-8.4-1.1-14.1s-7.5.5-15.8.5H134.8c-8.2,0-8.2-2.1-16.5-2.1s-8.2-.5-16.5-.5-8.2,1.7-16.5,1.7-8.2-1.8-16.5-1.8-8.2,2.4-16.5,2.4S44.2,34.3,36,34.3s-11.9-5.7-17.5.3.2,9.7.2,18.4S19.3,61.8,19.3,70.5Z" style="fill:#008cd1"/><path d="M168.3,71,167,68.7a113.7,113.7,0,0,0-7-11.8c-1.5-2.1-2.9-3.2-4.3-3.2a3.1,3.1,0,0,0-2.3,1.1c-1.8,2.1-2.7,6.8-2.1,11.9l.3,2.3c.9,7.9,2,17.6-2.1,22s-15.3,9.6-22.3,10.1h-1.5c-7.9,0-17.7-3.2-21.1-9.4s-4.7-17.3-3.4-23.6l.5-2.1c.9-4.1,1.7-8-.1-10.2a5.2,5.2,0,0,0-4.3-1.7l-2.1.2-2.7.2a30.4,30.4,0,0,1-7.2-1.1,24.8,24.8,0,0,0-5.6-.9,9.5,9.5,0,0,0-6,2c-5.2,3.9-2.9,9.7-.6,15.3a56.7,56.7,0,0,1,2.1,6.1c1.2,4.6.6,9.3-1.7,12.2a8.2,8.2,0,0,1-6.9,3.2H65.1a53.6,53.6,0,0,0-6.1-.3,116,116,0,0,0-25.8,3c-6.1,1.5-12,3.5-16.2,7.3a9.3,9.3,0,0,0,2.6,4.2c5.6,6,8.3-1.4,16.6-1.4s8.2,2.1,16.5,2.1H68.9c8.2,0,8.2.5,16.5.5s8.2-2.5,16.5-2.5,8.2,1.9,16.5,1.9,8.2-1.5,16.5-1.5h16.5c8.2,0,10.8,6.9,16.5.9s2.4-8.5.4-17.6S168.2,79.2,168.3,71Z" style="fill:#008cd1"/><path d="M188.2,127.3c2.7-6.3,7.1-14.4,0-39.7-1.9-9.1-9.8-19.4-14-26.9l-.9-1.6-.7-1.2c-4.3-7.6-8.7-15.4-14.6-17a25.3,25.3,0,0,0-6.5-1c-5.1,0-8,2.1-8.7,6.3a137.7,137.7,0,0,0-1.2,27.4,19.2,19.2,0,0,1-2.8,11.6,12.6,12.6,0,0,1-9.7,5.6h-1.7c-5,0-11.2-1.8-14.1-5.9a7.4,7.4,0,0,1-.9-7c2.6-7.3,2.8-11.4,3.1-18.3V58.6c.2-3.4-.2-8.1-3.1-11.1a9.3,9.3,0,0,0-7.1-2.7h-.2c-4.4.1-9.2-.9-13.8-1.9a61.5,61.5,0,0,0-11.9-1.7H74.5c-6.9.1-13.4.2-15,6.6-2.1,8.2-.4,14.9,2.3,23.5.9,2.8.7,5.1-.6,6.8s-5,3.4-10.1,3.4l-4.8-.3L42.4,81a62.8,62.8,0,0,0-22.1,4.3c-15.7,6.5-18.1,15.3-19,19.9C-.6,115.4-.5,117.9,2,124c.7,1.7,1.4,3.8,2.1,6.1,1.8,5.5,4,12.4,6.7,14.6,1.8-4.7.9-18.7.5-21.2a33.4,33.4,0,0,1-.1-11.9c2.3-11.3,12-14.9,22-17.4a116,116,0,0,1,25.8-3,53.6,53.6,0,0,1,6.1.3h1.5a8.2,8.2,0,0,0,6.9-3.2c2.3-2.9,2.9-7.6,1.7-12.2A56.7,56.7,0,0,0,73,70c-2.2-5.6-4.5-11.4.6-15.3a9.5,9.5,0,0,1,6-2,24.8,24.8,0,0,1,5.6.9,30.4,30.4,0,0,0,7.2,1.1l2.7-.2,2.1-.2a5.2,5.2,0,0,1,4.3,1.7c1.8,2.2.9,6.1.1,10.2l-.5,2.1c-1.3,6.3-.7,16,3.4,23.6s13.1,9.4,21.1,9.4h1.5c7-.4,17.8-5.3,22.3-10.1s3-14.2,2.1-22l-.3-2.3c-.6-5.1.3-9.9,2.1-11.9a3.1,3.1,0,0,1,2.3-1.1c1.4,0,2.9,1.1,4.3,3.2a113.7,113.7,0,0,1,7,11.8c1.4,2.6,2.8,5.3,4.6,8.1,0,0,5.5,9.3,9.5,24.9,1.5,6-1.1,16.2-2.3,21.3-.4,2-.9,3.8-1.1,5.7v.4l-.4.2c-3.2,1.4-3.9,4.5-3.9,6.8,0,4.6,2.5,9.5,4.1,10.2h.1c1.1.4,3.9-.9,6.3-3.7s4.9-6.1,2.7-10.6l-.2-.3v-.3Z" style="fill:#231f20"/><g id="8e4d4ece-befd-4bd6-a452-537d5a4e12ee" data-name="g7602"><path id="8ac35b69-7f83-45bb-9a3d-73cab9b3dbe0" data-name="path7612" d="M177.6,70.1a11.5,11.5,0,0,0-5.4,3.6l-2.1-3.6a11.1,11.1,0,0,0,6.1-2.6Z" style="fill:#008cd1"/><path id="b15047fb-3938-4db2-9b32-de1e716cc916" data-name="path7614" d="M175.2,65.8l-2.5-4.3a10.9,10.9,0,0,1-4.8,3.9l1.5,2.1A9,9,0,0,0,175.2,65.8Z" style="fill:#9f3515"/><path id="ebc31b78-298a-4c8f-8ddf-0b1b57a3a21a" data-name="path7616" d="M171.6,59.2c-1.2,1.7-2.8,3.7-4.9,3.8,0,0-5.3-8.5-6.9-9.9a6.5,6.5,0,0,0-3.5-1.6,22.5,22.5,0,0,0,2.5-8.3s1.9,0,4.6,3.2S171.6,59.2,171.6,59.2Z" style="fill:#be9969"/><path id="66b62c98-48b4-4991-beb4-8bd869fe5110" data-name="path7618" d="M155.5,41.8c.5,3.2-.3,6.5-1.2,9.7a4.1,4.1,0,0,0-2,.7,28.4,28.4,0,0,0-4.4-10C150.1,41.4,152.7,41.5,155.5,41.8Z" style="fill:#be9969"/><path id="0473338b-5c98-4bb2-acab-69f9da65a573" data-name="path7620" d="M146.3,43.6c-1.6.5-2,3.8-2.5,6.7,2.3,1.3,5.1,2.4,6.2,4.4.4-1.1.5-1.8,1-2.3A24.7,24.7,0,0,0,146.3,43.6Z" style="fill:#be9969"/><path id="6ad79e55-2b11-45b5-b34b-4e6878f47f79" data-name="path7622" d="M143.8,52.8a53.6,53.6,0,0,0-.7,8.9c0,5.7.5,14,.5,14a9.5,9.5,0,0,1,6.6,0s-1-7.1-1.2-11.8a24.3,24.3,0,0,1,.7-7.2A17.9,17.9,0,0,0,143.8,52.8Z" style="fill:#9f3515"/><path id="07a28660-12aa-4b8b-bbb4-da321bf8afc6" data-name="path7624" d="M145.9,77.1a4.7,4.7,0,0,0-2.6.6,7.9,7.9,0,0,1-.7,3.6c.9.3,1.9.3,2.2.9A12.2,12.2,0,0,0,145.9,77.1Z" style="fill:#be9969"/><path id="be4ac1c0-c80b-4d37-9618-a531a6c7f7b3" data-name="path7626" d="M148.1,77.3a12.3,12.3,0,0,1-.5,5.3,4.7,4.7,0,0,1,2.9,1.2c.7-1.8.3-4.5.1-6.3A5.3,5.3,0,0,0,148.1,77.3Z" style="fill:#be9969"/><path id="8f5148bc-74a2-474e-9800-bb7c886ec8e3" data-name="path7628" d="M147.1,84.7c-1,1.8-1.6,3.9-3.3,4.8a8,8,0,0,1,2.1,2.3c2.6-1.3,3-3.3,3.9-5.1S148.2,85.1,147.1,84.7Z" style="fill:#008cd1"/><path id="c939b96d-8d2a-4d8b-9897-a68ca86cc7dc" data-name="path7630" d="M144.5,84.4c-1.1,1.6-1.4,3.3-3.3,4.2L140,87.1c1.5-1.2,1.4-2.7,2.1-4.2A3,3,0,0,1,144.5,84.4Z" style="fill:#008cd1"/><path id="ee866989-ae19-4199-9186-2090ae280de3" data-name="path7632" d="M142.4,91.2a2.5,2.5,0,0,1,1.7,1.8c-1.6,1.2-2.7,2.6-5.4,3.3a6.2,6.2,0,0,0-1.4-2.8A12.1,12.1,0,0,0,142.4,91.2Z" style="fill:#be9969"/><path id="56d5aded-d80c-47ee-9f27-a7e958213191" data-name="path7634" d="M139.9,89.8a5,5,0,0,1-3.5,2.5l-1.3-1.3a8.7,8.7,0,0,0,3.5-2.6Z" style="fill:#008cd1"/><path id="54cc4fb9-5ee7-4b5c-a360-7e5be944095c" data-name="path7636" d="M132.3,92.3c2.5,1.2,3,2.6,4,4.5a26,26,0,0,1-8.4,2.9c-4.1.5-11.9-1.6-11.9-1.6,1.4-2.2,2-4.6,4.2-6.2a22.9,22.9,0,0,0,5.8,1A29,29,0,0,0,132.3,92.3Z" style="fill:#9f3515"/><path id="d6d4a5c2-d3b3-4344-9253-3cb77fb335ea" data-name="path7638" d="M118.5,91a17,17,0,0,0-4.3,6.4,8.3,8.3,0,0,1-3.7-2.4,10,10,0,0,1,5.5-5.1C116.6,90.9,117.8,90.7,118.5,91Z" style="fill:#be9969"/><path id="5972cfd3-c917-4f5d-9abe-c196a298e304" data-name="path7640" d="M114.1,88.5a12,12,0,0,0-5.6,4.8c-1.3-.5-1.8-2.3-2.4-3.6a15.8,15.8,0,0,0,5.9-3.9A5.1,5.1,0,0,0,114.1,88.5Z" style="fill:#008cd1"/><path id="248866dc-4671-4727-9a09-abbd7e44a08a" data-name="path7642" d="M111.1,84.1a12.6,12.6,0,0,1-6.3,3.5,26.2,26.2,0,0,1-2.3-8.1,44.9,44.9,0,0,1,.3-9.9c3.3,0,7.8-1.4,9.7.3-.6,2.5-1.5,5.4-2.5,8.5A6.3,6.3,0,0,0,111.1,84.1Z" style="fill:#9f3515"/><path id="98a44d23-edbb-48db-a51b-314d850e8bab" data-name="path7644" d="M112.5,66a24.6,24.6,0,0,0-9,1.3,14.8,14.8,0,0,0,1-4.9c3.1-1,5.7-.3,8.4,0A5.8,5.8,0,0,1,112.5,66Z" style="fill:#008cd1"/><path id="155c311b-6243-4b11-8c56-b62d6d7e60f6" data-name="path7646" d="M113.5,60.4c-2.7-1.2-6.1-1-9-.8a7.6,7.6,0,0,0-.2-2.9c3.3-1,7.3-3.5,9.3-2C113.7,56.5,114.1,58.4,113.5,60.4Z" style="fill:#be9969"/><path id="a1bb4853-dfc0-49c7-8d29-d163e4f9b188" data-name="path7648" d="M112.7,51.6c-4.9-.2-6.7,1.9-9.4,3.3a6.3,6.3,0,0,0-3.6-2.3c-2.1-.5-7.7.2-7.7.2a12.7,12.7,0,0,0,.3-8.1,33.4,33.4,0,0,0,10.2,1.8c3.7.1,4.4,0,5.8.4S112.8,50.2,112.7,51.6Z" style="fill:#9f3515"/><path id="b3a1d5d0-f72a-4a65-85d2-56193efa55d9" data-name="path7650" d="M89,44.2c.3,2.6,1.1,5,0,8.1a20.4,20.4,0,0,0-5.1-.7,17.1,17.1,0,0,0,2.5-7.7Z" style="fill:#be9969"/><path id="2c09888d-edbb-43f0-a7a5-424d1edf7c10" data-name="path7652" d="M83.1,43.8A12.1,12.1,0,0,1,81,51.2a4,4,0,0,0-3.6.2c-1.2-3.3-2.3-6.6-.7-8.1A16.2,16.2,0,0,1,83.1,43.8Z" style="fill:#be9969"/><path id="c9d847c0-e6ca-473f-9ffb-a1c25bf45a0d" data-name="path7654" d="M74.2,43.3q-5.2-.4-7.7.7a4.4,4.4,0,0,1,1.3,2.5,16,16,0,0,1,6.1-1A8.3,8.3,0,0,1,74.2,43.3Z" style="fill:#008cd1"/><path id="496a1fa4-3ad9-4907-a62e-19b139547d99" data-name="path7656" d="M65,44.9a3.6,3.6,0,0,1,1.3,1.6c-2.1,2.4-2.2,4.2-2.6,6.1a5.5,5.5,0,0,1-3.5-1s0-3.1,1.2-4.8A5.7,5.7,0,0,1,65,44.9Z" style="fill:#9f3515"/><path id="da948c2c-cfbe-47ac-8969-18597cf7dd25" data-name="path7658" d="M76,51.3a11,11,0,0,0-4.3,3.3,6.1,6.1,0,0,1-2-3.1c1.9-1.7,3.2-1.6,4.9-2.2A15.9,15.9,0,0,0,76,51.3Z" style="fill:#008cd1"/><path id="8c5bce27-344f-4f97-800d-7b3742d3845f" data-name="path7660" d="M68.7,52.3a4.7,4.7,0,0,0,1.9,2.8c-1.1,1.2-1.3,2.8-1.5,4.4a6.2,6.2,0,0,0-3.5-.8,11.1,11.1,0,0,1,.3-4.9A6.4,6.4,0,0,1,68.7,52.3Z" style="fill:#9f3515"/><path id="ea3bc88d-ec71-4e81-b62d-ce425262e57a" data-name="path7662" d="M63.5,53.8c-.7.4-3.5-.3-3.5-.5a8.8,8.8,0,0,0,.7,5.4,9,9,0,0,1,3.1-.5A8.6,8.6,0,0,1,63.5,53.8Z" style="fill:#008cd1"/><path id="8a6a40d9-200d-4d25-ab00-65779a683bbb" data-name="path7664" d="M61.4,61.2a11.5,11.5,0,0,1,3.5-.7,17.3,17.3,0,0,1,3.9.5c-.4.7,0,2.2.7,3.9a12.5,12.5,0,0,0-4.3-.8,8,8,0,0,0-3.6,1.2C61.4,63.9,60.6,62.6,61.4,61.2Z" style="fill:#be9969"/><path id="874367e3-8f65-413d-86c1-a64fd0160f90" data-name="path7666" d="M62.7,67.8a5.3,5.3,0,0,1,3-1.2,17.9,17.9,0,0,1,4.6.5l1.5,3.6a12.4,12.4,0,0,0-3.6,0,28.5,28.5,0,0,0-4.2,1A11,11,0,0,1,62.7,67.8Z" style="fill:#be9969"/><path id="7a9bbfb4-90fe-40dc-ac96-c1d4cfd66af1" data-name="path7668" d="M72.3,72.8c-2.5-.6-5.2-.2-8.5.7l.2,3c-.1,1.5-.4,2.8-1.5,3.4a14.2,14.2,0,0,0,4.1,4.8,24.8,24.8,0,0,0,5.3,2.6A10.4,10.4,0,0,0,74,80.8C74.2,78.2,73.2,75.4,72.3,72.8Z" style="fill:#be9969"/><path id="5acf8c97-ebd5-42fb-86bd-e33324eca3d8" data-name="path7670" d="M61.5,81.3a6.3,6.3,0,0,0,2.3,3.6,29.9,29.9,0,0,0,5.7,3.3c-.3.9-.8,1.1-2.4,1.1s-5.3-.9-8.6-.4c0-1.4.2-2-.6-3.4l-2-2.5A10.2,10.2,0,0,0,61.5,81.3Z" style="fill:#008cd1"/><path id="cf86b95c-ab37-4147-8e4c-9d02a2f9d269" data-name="path7672" d="M52.7,83.6c2.1.5,5,5.1,2.3,6s-7.6.5-10.7,1c-.7-2.3-1.5-4.5-1.3-6.8C45.8,83.5,50.4,83.6,52.7,83.6Z" style="fill:#9f3515"/><path id="635e218b-df84-4890-a69f-4f73580eb399" data-name="path7674" d="M40.7,83.2A11.2,11.2,0,0,0,42,90.6a45.6,45.6,0,0,0-12.3,2c-.6-2.5-2.5-4.6-4.8-6.9a38.6,38.6,0,0,1,6.7-1.8C34.1,83.5,37.7,83.5,40.7,83.2Z" style="fill:#be9969"/><path id="05234348-f4d5-4210-8009-75bb39a9f724" data-name="path7676" d="M27.3,93.3a14.7,14.7,0,0,0-4.8-6.6,9.1,9.1,0,0,0-3.7,1.2c1.4,2.1,2.3,4.1,5.2,6.2A7.4,7.4,0,0,1,27.3,93.3Z" style="fill:#9f3515"/><path id="9388f4f8-def6-4729-852e-37111d2ba09a" data-name="path7676" d="M12.9,101.9C12,99.6,8.6,98,6.8,97.6s-3.2,5-3.6,7.3c2,0,5.4,1.1,6.6.9A7.1,7.1,0,0,0,12.9,101.9Z" style="fill:#9f3515"/><path id="8a872d4a-f00e-4a0c-8843-e07d76c0b484" data-name="path7678" d="M22,95.1a27.4,27.4,0,0,1-4.7-6.4,5.2,5.2,0,0,0-3.2,2c3,1.5,2.9,3.2,5.8,6A3.7,3.7,0,0,1,22,95.1Z" style="fill:#008cd1"/><path id="62b7f9b9-dcf9-4967-a921-481e9d2f237c" data-name="path7680" d="M12.3,91.9a14.4,14.4,0,0,0-4.6,4.4c1.2.1,1.9.7,3.1,1.2a7.9,7.9,0,0,0,3.1-3.6A2.9,2.9,0,0,0,12.3,91.9Z" style="fill:#9f3515"/><path id="f62dfcf1-a976-46be-8326-ae059597f552" data-name="path7682" d="M15.3,95.6A11.4,11.4,0,0,1,12,99.2a4,4,0,0,0,2.8,1.7,7.7,7.7,0,0,1,2.5-3A6.6,6.6,0,0,0,15.3,95.6Z" style="fill:#be9969"/><path id="cc706c36-7c58-4234-8033-97d86cd79c5d" data-name="path7694" d="M73.7,46.5c-.1-.4-4.8.4-6.3,1.8s-1.6,1.7-2,3l.3.7c3.3-2.3,5.3-3.4,8.2-4A2,2,0,0,1,73.7,46.5Z" style="fill:#9f3515"/></g><path id="a706a689-06fa-4c92-99fa-5bf8ac587801" data-name="path7604" d="M9.8,140.5c.1-4.3.5-8.3-.4-13s-.3-8.7-.4-13a7.6,7.6,0,0,1-6.5-.1c-.2,4.5.8,7.7,2.6,12.7S9.8,140.5,9.8,140.5Z" style="fill:#be9969"/><path id="ae6ac5bd-174d-4f11-98a5-9794085d2e1a" data-name="path7606" d="M9,111.9c-2.3.7-4.5,1.1-6.3-.3a21.4,21.4,0,0,1,.4-4.9,10.6,10.6,0,0,0,6.4.8A34.4,34.4,0,0,1,9,111.9Z" style="fill:#008cd1"/><path id="91659b86-7998-4e60-806b-45b98a8875b1" data-name="path7680" d="M188.9,97.8c1.3,1.9,1.1,4.1,1.5,6.2-1.1-.4-1.7-.1-3-.2a8,8,0,0,1-.8-4.8A2.9,2.9,0,0,1,188.9,97.8Z" style="fill:#9f3515"/><path id="8e06fa89-114a-487a-866e-ff9ff0e9090d" data-name="path7682" d="M185.1,98.8c.2,1.3-.1,4.3,1,5.7a4,4,0,0,1-3.3.4c-.1-1.6-.2-4.4-.8-5.3S184.6,98.9,185.1,98.8Z" style="fill:#be9969"/><path id="866cb4d4-6025-413c-8257-0f166586f5fd" data-name="path7684" d="M190.5,105.6c-1.1-.1-2.4-.3-3.1.4.9,2.3.3,5.3.2,7.5a5.6,5.6,0,0,1,2.8.4,8.1,8.1,0,0,0,.5-4.3C190.8,108.4,191.4,106,190.5,105.6Z" style="fill:#008cd1"/><path id="9b36d541-23d3-41d6-9e42-288f9ee11be7" data-name="path7686" d="M185.9,106.4a19,19,0,0,1-.2,6.6,7.7,7.7,0,0,0-3-.5c.1-1.8,1.3-3.7.4-5.9C184.1,107.2,184.9,106.5,185.9,106.4Z" style="fill:#9f3515"/><path id="8c0d8602-318d-4e45-942c-3c19263ed34b" data-name="path7688" d="M190.5,116.4c-2.5.3-5.1-1.3-8.3-1.6l-.2,2.7c2.4-.1,4.4.7,7.3,1.3Z" style="fill:#9f3515"/><path id="2a9fb81c-ecd7-448b-afda-ce9d5f3d98c0" data-name="path7690" d="M188.9,121.4c-3.1-.2-5.2-.4-7.1-1.6a14.5,14.5,0,0,1-.7,3.1,8.8,8.8,0,0,1,6.6,1.7Z" style="fill:#be9969"/><path id="f17ca8fd-5ed0-4e2c-847e-f6e15c7c74cd" data-name="path7692" d="M186.6,126.7a34.3,34.3,0,0,0-2,4.2c-1.6-1.2-3.2-1.4-5.1-1.9l1.1-4.2A14.4,14.4,0,0,1,186.6,126.7Z" style="fill:#008cd1"/><path id="93d14207-01d9-46d3-a2cf-7944f8dee24c" data-name="path7696" d="M184.1,132.8c1,1,1.6,2.6.3,5.3s-4.6,6.5-6.1,6-3.1-4.3-3-7.6,1.1-4.7,3.1-5.4A6.7,6.7,0,0,1,184.1,132.8Z" style="fill:#be9969"/><path id="0cde8f7f-015e-4c38-8baa-9b3c05cf9139" data-name="path7610" d="M180.8,94.4a32.9,32.9,0,0,1,7.4-.5,84,84,0,0,0-3.6-11.5,47.1,47.1,0,0,0-6-9.9,7.6,7.6,0,0,0-5.3,3.4A47.1,47.1,0,0,1,178,86.3,56,56,0,0,0,180.8,94.4Z" style="fill:#9f3515"/><path id="d835f88d-2de1-4581-9560-7c1bcb92c1d8" data-name="path7612" d="M188.9,96.8a17.9,17.9,0,0,0-7.1,1.2l-.6-2.1c2.7-.3,5-.9,7.4-.5Z" style="fill:#008cd1"/></svg>