<?xml version="1.0" encoding="UTF-8" standalone="no"?>
<!-- Generator: Adobe Illustrator 13.0.0, SVG Export Plug-In . SVG Version: 6.00 Build 14948)  -->

<svg
   version="1.1"
   id="Layer_1"
   x="0px"
   y="0px"
   width="172"
   height="256"
   viewBox="0 0 172 256"
   enable-background="new 0 0 256 256"
   xml:space="preserve"
   sodipodi:docname="logo2.svg"
   inkscape:version="1.2 (dc2aedaf03, 2022-05-15)"
   xmlns:inkscape="http://www.inkscape.org/namespaces/inkscape"
   xmlns:sodipodi="http://sodipodi.sourceforge.net/DTD/sodipodi-0.dtd"
   xmlns="http://www.w3.org/2000/svg"
   xmlns:svg="http://www.w3.org/2000/svg"><defs
   id="defs11428" /><sodipodi:namedview
   id="namedview11426"
   pagecolor="#ffffff"
   bordercolor="#000000"
   borderopacity="0.25"
   inkscape:showpageshadow="2"
   inkscape:pageopacity="0.0"
   inkscape:pagecheckerboard="0"
   inkscape:deskcolor="#d1d1d1"
   showgrid="false"
   inkscape:zoom="4.0117188"
   inkscape:cx="111.17429"
   inkscape:cy="127.87537"
   inkscape:window-width="3440"
   inkscape:window-height="1369"
   inkscape:window-x="-8"
   inkscape:window-y="-8"
   inkscape:window-maximized="1"
   inkscape:current-layer="Layer_1" />
<g
   id="g11421"
   transform="translate(-42)">
	<path
   fill="#458ecc"
   d="m 177.174,93.799 c -9.446,10.651 -37.782,43.208 -37.782,43.208 l -20.298,-20.296 c -12.459,9.646 -15.273,24.92 -9.043,32.958 6.23,8.039 10.25,12.862 16.279,18.289 6.028,5.424 17.283,7.234 23.713,-0.201 6.431,-7.437 64.31,-72.75 64.31,-72.75 C 203.7,80.335 186.618,83.148 177.174,93.799 Z"
   id="path11417" />
	<path
   fill="#458ecc"
   d="m 177.791,201.009 c 0,11.666 -9.458,21.126 -21.128,21.126 H 97.325 c -11.669,0 -21.127,-9.458 -21.127,-21.126 V 54.99 c 0,-11.667 9.458,-21.126 21.127,-21.126 h 59.338 c 11.668,0 21.128,9.458 21.128,21.126 v 7.906 c 3.16,-2.001 15.405,-8.329 33.863,-0.303 V 54.99 C 211.654,24.619 187.035,0 156.663,0 H 97.325 C 66.954,0 42.334,24.62 42.334,54.99 v 146.02 c 0,30.371 24.62,54.991 54.991,54.991 h 59.338 c 30.372,0 54.991,-24.62 54.991,-54.991 v -65.872 l -33.863,40.487 z"
   id="path11419" />
</g>
<rect
   fill="none"
   width="256"
   height="256"
   id="rect11423"
   x="0"
   y="0" />
</svg>
