<?xml version="1.0" encoding="utf-8"?>
<!-- Generator: Adobe Illustrator 13.0.0, SVG Export Plug-In . SVG Version: 6.00 Build 14948)  -->
<!DOCTYPE svg PUBLIC "-//W3C//DTD SVG 1.1//EN" "http://www.w3.org/Graphics/SVG/1.1/DTD/svg11.dtd">
<svg version="1.1" id="Layer_1" xmlns="http://www.w3.org/2000/svg" xmlns:xlink="http://www.w3.org/1999/xlink" x="0px" y="0px"
	 width="1024px" height="1024px" viewBox="0 0 1024 1024" enable-background="new 0 0 1024 1024" xml:space="preserve">
<rect fill="none" width="1024" height="1024"/>
<g>
	<path fill="#AAABAB" d="M289.586,997.79c-45.258,0-81.946-36.688-81.946-81.946V81.946c0-15.916,4.552-30.761,12.403-43.334
		c-23.181,14.475-38.613,40.201-38.613,69.543v833.897c0,45.258,36.689,81.947,81.947,81.947h471.037
		c29.343,0,55.069-15.433,69.544-38.614c-12.573,7.853-27.419,12.404-43.335,12.404H289.586z"/>
	<path fill="#AAABAB" d="M496.841,673.268c-41.932,0-75.922-33.992-75.922-75.924V415.423c0-14.245,3.931-27.568,10.755-38.959
		c-22.14,13.264-36.965,37.481-36.965,65.168v181.921c0,41.932,33.991,75.924,75.922,75.924h56.527
		c27.687,0,51.903-14.825,65.168-36.964c-11.391,6.823-24.714,10.755-38.958,10.755H496.841z"/>
	<path fill="#3975A7" d="M760.623,0H289.586c-29.342,0-55.068,15.432-69.543,38.612c-7.852,12.573-12.403,27.418-12.403,43.334
		v833.897c0,45.258,36.688,81.946,81.946,81.946h471.037c15.916,0,30.762-4.552,43.335-12.404
		c23.181-14.475,38.612-40.2,38.612-69.542V81.946C842.57,36.688,805.881,0,760.623,0z M693.547,694.17
		c0,27.688-14.825,51.904-36.964,65.168c-11.391,6.824-24.712,10.755-38.956,10.755H432.583c-41.931,0-75.923-33.991-75.923-75.923
		V318.596c0-14.244,3.931-27.567,10.755-38.958c13.264-22.14,37.481-36.964,65.167-36.964h185.043
		c41.93,0,75.92,33.991,75.92,75.922V694.17z"/>
	<path fill="#3975A7" d="M553.368,339.5h-56.527c-27.687,0-51.903,14.825-65.167,36.964c-6.824,11.391-10.755,24.714-10.755,38.959
		v181.921c0,41.932,33.991,75.924,75.922,75.924h56.527c14.244,0,27.567-3.932,38.958-10.755
		c22.14-13.265,36.965-37.481,36.965-65.169V415.423C629.291,373.491,595.3,339.5,553.368,339.5z"/>
</g>
</svg>
