<?xml version="1.0" encoding="utf-8"?>
<!-- Generator: Adobe Illustrator 13.0.0, SVG Export Plug-In . SVG Version: 6.00 Build 14948)  -->
<!DOCTYPE svg PUBLIC "-//W3C//DTD SVG 1.1//EN" "http://www.w3.org/Graphics/SVG/1.1/DTD/svg11.dtd">
<svg version="1.1" id="Layer_1" xmlns="http://www.w3.org/2000/svg" xmlns:xlink="http://www.w3.org/1999/xlink" x="0px" y="0px"
	 width="256px" height="256px" viewBox="0 0 256 256" enable-background="new 0 0 256 256" xml:space="preserve">
<g>
	<path fill="#458ECC" d="M177.174,93.799c-9.446,10.651-37.782,43.208-37.782,43.208l-20.298-20.296
		c-12.459,9.646-15.273,24.92-9.043,32.958c6.23,8.039,10.25,12.862,16.279,18.289c6.028,5.424,17.283,7.234,23.713-0.201
		c6.431-7.437,64.31-72.75,64.31-72.75C203.7,80.335,186.618,83.148,177.174,93.799z"/>
	<path fill="#458ECC" d="M177.791,201.009c0,11.666-9.458,21.126-21.128,21.126H97.325c-11.669,0-21.127-9.458-21.127-21.126V54.99
		c0-11.667,9.458-21.126,21.127-21.126h59.338c11.668,0,21.128,9.458,21.128,21.126v7.906c3.16-2.001,15.405-8.329,33.863-0.303
		v-7.603c0-30.371-24.619-54.99-54.991-54.99H97.325c-30.371,0-54.991,24.62-54.991,54.99V201.01
		c0,30.371,24.62,54.991,54.991,54.991h59.338c30.372,0,54.991-24.62,54.991-54.991v-65.872l-33.863,40.487V201.009z"/>
</g>
<rect fill="none" width="256" height="256"/>
</svg>
