<?xml version="1.0" encoding="utf-8"?>
<!-- Generator: Adobe Illustrator 25.0.0, SVG Export Plug-In . SVG Version: 6.00 Build 0)  -->
<svg version="1.1" id="Layer_1" xmlns="http://www.w3.org/2000/svg" xmlns:xlink="http://www.w3.org/1999/xlink" x="0px" y="0px"
	 viewBox="0 0 1024 1024" style="enable-background:new 0 0 1024 1024;" xml:space="preserve">
<style type="text/css">
	.st0{fill:#43A047;}
	.st1{fill:#8A8B91;}
	.st2{fill:#1D333D;}
	.st3{fill:#FFFFFF;}
	.st4{fill:#3B424D;}
	.st5{fill:#7248B9;}
	.st6{fill:#71727B;}
</style>
<g id="gorilla_logo">
	<circle id="circle" class="st0" cx="512" cy="495.5" r="495.5"/>
	<path id="gray" class="st1" d="M626.2,337.6c10.7-12.7,26.2-11,28-10.8c0.1,0,0.2,0,0.2,0s0.2-0.3,0.5-0.9c1.3-2.5,4.5-10.6,3-26
		c-1.9-19.1-10.4-63.3-43.2-70.4c-32.8-7.1-68.9,18.3-81.6,28.6c-12.7,10.2-16.4,11.2-20.1,11.2h-1.7c-3.7,0-7.3-1-20.1-11.2
		c-12.7-10.2-48.8-35.7-81.6-28.6c-32.8,7.1-41.3,51.3-43.2,70.4c-1.6,15.5,1.7,23.5,3,26c0.3,0.6,0.5,0.9,0.5,0.9s0.1,0,0.2,0
		c1.8-0.2,17.3-1.9,28,10.8c0,0-26.9,11.2-39.6,28.5c0,0,34,48.2,152.9,48.2h1.7c118.9,0,152.9-48.2,152.9-48.2
		C653.1,348.9,626.2,337.6,626.2,337.6z M411.9,281.6c0-11.7,8.8-21.1,19.6-21.1c10.8,0,19.6,9.5,19.6,21.1
		c0,11.7-8.8,21.1-19.6,21.1C420.7,302.7,411.9,293.2,411.9,281.6z M580.5,332.7c-1.5,14.9-18.5,18.4-18.5,18.4c-0.4,0-0.7,0-1-0.1
		c0,0-0.1,0-0.1,0c-0.1,0-0.3-0.1-0.4-0.2c-0.1,0-0.2-0.1-0.2-0.1c-0.2-0.1-0.3-0.2-0.5-0.3c0,0,0,0-0.1,0c-0.2-0.1-0.3-0.3-0.4-0.5
		c0-0.1-0.1-0.1-0.1-0.2c-0.1-0.1-0.2-0.2-0.2-0.4c0-0.1-0.1-0.2-0.1-0.3c-0.1-0.1-0.1-0.2-0.2-0.4c-0.1-0.2-0.2-0.4-0.2-0.6
		c0-0.1-0.1-0.2-0.1-0.3c-0.1-0.1-0.1-0.3-0.2-0.4c-0.1-0.1-0.1-0.2-0.2-0.3c-0.1-0.1-0.1-0.2-0.2-0.4c-0.1-0.1-0.1-0.2-0.2-0.3
		c-0.1-0.1-0.2-0.2-0.3-0.3c-0.1-0.1-0.2-0.2-0.3-0.3c-0.1-0.1-0.2-0.2-0.4-0.3c-0.1-0.1-0.2-0.2-0.3-0.2c-0.2-0.1-0.3-0.2-0.5-0.3
		c-0.1-0.1-0.3-0.1-0.4-0.2c-0.2-0.1-0.4-0.1-0.6-0.2c-0.2,0-0.3-0.1-0.5-0.1c-0.3-0.1-0.5-0.1-0.8-0.1c-0.2,0-0.4-0.1-0.6-0.1
		c-0.3,0-0.7,0-1.1,0c-0.2,0-0.4,0-0.6,0c-0.6,0-1.3,0.1-2.1,0.1c-12.6,1.3-24.6,19.2-27.3,23.3c-2.6,3.9-4.9,6.1-10.5,6.3
		c0,0,0.1,0,0.1,0h-0.2c0,0,0.1,0,0.1,0c-5.6-0.2-8-2.4-10.5-6.3c-2.7-4.1-14.7-22-27.3-23.3c-0.8-0.1-1.5-0.1-2.1-0.1
		c-0.2,0-0.4,0-0.6,0c-0.4,0-0.8,0-1.1,0c-0.2,0-0.4,0.1-0.6,0.1c-0.3,0-0.6,0.1-0.8,0.1c-0.2,0-0.3,0.1-0.5,0.1
		c-0.2,0.1-0.4,0.1-0.6,0.2c-0.2,0.1-0.3,0.1-0.4,0.2c-0.2,0.1-0.3,0.2-0.5,0.3c-0.1,0.1-0.2,0.2-0.3,0.2c-0.1,0.1-0.3,0.2-0.4,0.3
		c-0.1,0.1-0.2,0.2-0.3,0.3c-0.1,0.1-0.2,0.2-0.3,0.3c-0.1,0.1-0.1,0.2-0.2,0.3c-0.1,0.1-0.2,0.2-0.2,0.4c-0.1,0.1-0.1,0.2-0.2,0.3
		c-0.1,0.1-0.1,0.3-0.2,0.4c0,0.1-0.1,0.2-0.1,0.3c-0.1,0.2-0.2,0.4-0.2,0.6c-0.1,0.1-0.1,0.3-0.2,0.4c0,0.1-0.1,0.2-0.1,0.3
		c-0.1,0.1-0.1,0.3-0.2,0.4c0,0.1-0.1,0.1-0.1,0.2c-0.1,0.2-0.3,0.3-0.4,0.5c0,0,0,0-0.1,0c-0.1,0.1-0.3,0.2-0.5,0.3
		c-0.1,0-0.2,0.1-0.2,0.1c-0.1,0.1-0.2,0.1-0.4,0.2c0,0,0,0-0.1,0c-0.3,0.1-0.6,0.1-1,0.1c0,0-17-3.5-18.5-18.4
		c-1.5-14.9,13.1-23.4,28.8-18.7c13.4,4.1,28.5,11.3,40.6,11.5c12.1-0.2,27.2-7.4,40.6-11.5C567.3,309.3,582,317.8,580.5,332.7z
		 M584.7,302.7c-10.8,0-19.6-9.5-19.6-21.1c0-11.7,8.8-21.1,19.6-21.1c10.8,0,19.6,9.5,19.6,21.1
		C604.3,293.2,595.5,302.7,584.7,302.7z"/>
	<g id="dark_green">
		<path class="st2" d="M933.2,640.4c-14.1-27.4-12.7-51.3-37.4-114.8c-24.7-63.5-62.5-104.8-62.5-104.8c53.6,8.1,65-22.2,65-22.2
			c-27.8,1.7-52-10.5-52-10.5c-44.8-24.7-66.3-75.3-66.3-75.3c16.1-18.3,14.4-42.1,14.4-42.1c0-39.4-37.8-47.2-37.8-47.2v-12.5
			c0,0,15.7,5.3,27.7,15.2c12,9.9,18.8,26.9,22.8,24.8c4-2.1-3.5-19.4-3.5-19.4c-18.5-49.7-64.8-52.2-64.8-52.2
			c-44.8-88.8-127-102.3-127-102.3c28.6-17,61.9-5,31.3-17c-30.7-12-66,2.7-66,2.7s-16,6.2-23.9,11.8c-7.9,5.6,0.6-12.4,8.3-22.8
			c8.6-11.6,19.3-21.3,29.6-31.4c1.7-1.7,5.9-4.4,5.4-7.5c-0.6-3.2-5.5-2.8-7.8-2.6c-1.1,0.1-2.1,0.2-3.2,0.4
			c-12.5,2-24.8,5.4-36.1,11.1c-10,4.9-20.9,11.7-27.5,20.7c-1.9,2.6-5.1,7.4-8.7,7.4h-1.8c-3.6,0-6.9-4.8-8.7-7.4
			c-6.6-9.1-17.6-15.8-27.5-20.7c-11.3-5.6-23.6-9.1-36.1-11.1c-1.1-0.2-2.1-0.3-3.2-0.4c-2.3-0.2-7.2-0.6-7.8,2.6
			c-0.5,3.1,3.7,5.8,5.4,7.5c10.3,10,21,19.8,29.6,31.4c7.7,10.4,16.2,28.4,8.3,22.8C463.1,69,447,62.8,447,62.8s-35.3-14.7-66-2.7
			s2.7,0,31.3,17c0,0-82.3,13.6-127,102.3c0,0-46.3,2.6-64.8,52.2c0,0-7.5,17.4-3.5,19.4c4,2.1,10.8-14.9,22.8-24.8
			c12-9.9,27.7-15.2,27.7-15.2v12.5c0,0-37.8,7.8-37.8,47.2c0,0-1.7,23.8,14.4,42.1c0,0-21.5,50.6-66.3,75.3c0,0-24.2,12.2-52,10.5
			c0,0,11.4,30.3,65,22.2c0,0-37.8,41.3-62.5,104.8c-24.7,63.5-23.4,87.4-37.4,114.8c-14.1,27.4-21,21-12,30.1
			c9.1,9.1,29.5-6.6,29.5-6.6s4.1,60.8,62.5,135.5c58.5,74.7,78.9,100.2,119.8,130.1s101.9,34.2,124.3,20.6c1.6-1,2.9-1.9,4-2.8
			c1.2-0.3,2.3-1,3.2-1.8c1.9-1.8,3.5-3.7,4.9-5.5l7,0l-5.2-2.6c2.5-4.1,3.8-8.4,3.8-12.7c0.1-7.6-3.5-15-10.9-22.5
			c2.4,0.1,3.9,0.1,4,0.1c0.1,0,0.2,0,0.3,0c3.4,0,6.5-2.3,7.4-5.6c0.8-2.9,1.2-6,1.2-9.2c0-11.1-4.5-16.6-8.4-19.2
			c1.2,0,1.9,0,1.9,0c3.5-0.1,6.5-2.4,7.3-5.7c0.6-2.3,0.9-4.7,0.9-7.2c0-10.3-4.3-15.9-10-18.9c3.2-0.2,5.5-0.4,5.8-0.4
			c4-0.3,7.1-3.6,7.1-7.7c0-11.3-8.6-24.3-32.8-26.8c-2-0.2-4.1-0.3-6.3-0.3c-9.3,0-18.4,1.9-26.4,3.5c-6,1.2-11.7,2.4-15.7,2.4
			c-8.9,0-28.7-8.5-44.4-31.4c-2.7-4-5.4-8.4-8.1-13.4l7-14l-16.4-8.2l-1.5-0.8c-0.7-0.4-1-1.2-0.6-2c0.2-0.4,0.5-0.6,0.9-0.7
			c0.3-0.1,0.7-0.1,1,0.1l17.9,9l2.8-5.5l-17.9-9c-0.7-0.4-1-1.2-0.6-2c0.4-0.7,1.2-1,2-0.6l17.9,9l15.7-31.2l-17.1-8.5
			c-0.7-0.4-1-1.2-0.6-2c0.4-0.7,1.2-1,2-0.6l17.1,8.6l2.8-5.5l-17.1-8.5c-0.7-0.4-1-1.2-0.6-2c0.4-0.7,1.2-1,2-0.6l17.1,8.5
			l16.8-33.5l-12.4-6.2l-5-2.5c-0.7-0.4-1-1.2-0.6-2c0.4-0.7,1.2-1,2-0.6l5.2,2.6l12.1,6.1l2.8-5.5l-11.6-5.8l-5.7-2.9
			c-0.5-0.2-0.8-0.7-0.8-1.2c-2.9,4.7-5.9,9.4-8.8,14.1c-39.7-21.5-60.5-52.5-60.5-52.5s-6.2,47.3,0.6,82
			c6.8,34.7,22.8,72.6,22.8,72.6c1.8,3.7,3.7,7.1,5.6,10.4c2,3.4,3.9,6.5,5.9,9.4c16.8,24.5,38.8,34.7,50.8,34.7
			c10.7,0,26.6-5.9,42.2-5.9c1.8,0,3.7,0.1,5.5,0.3c17.2,1.7,25.9,9.5,25.9,19.1c0,0-24.3,1.7-33,1.7c-8.7,0-32,3.7-20.8,7.1
			c8.7,2.7,17.9,2.4,27,2.8c11.3,0.5,24,0.3,24,15.3c0,1.9-0.2,3.7-0.7,5.3c0,0-20.8,0.3-35.4,1.3c-14.7,1-25.9,0.4-24.1,7.1
			c0,0-0.5,5.5,28.6,5.5h24.7c2.5,1.6,5.2,5.1,5.2,13c0,2.7-0.4,5-0.9,7.1c0,0-10.5-0.4-21.7-0.4c-5.6,0-11.3,0.1-15.9,0.4
			c-13.8,0.8-23.9,2.7-22.9,7c1,4.3,6.4,6.3,10.9,6.3c4.6,0,39.4-0.7,39.4-0.7c9.8,9.8,11.3,18.5,6,26.7c-1.3,2-3,4.1-5.1,6.1
			c0,0-5.4,0.5-14,0.5c-19.4,0-55.4-2.6-83.5-19.8C275.9,894,150.1,770.1,146.2,647C142.3,523.9,218,450.9,218,450.9
			c31.8,85.6,97.7,131.7,143.3,154.5c-0.2,0.3-0.3,0.6-0.4,0.9c0.3,0,0.6,0,0.8,0.1l6.2,3.1l11.4,5.7l2.8-5.5l-13.5-6.7l-4.1-2.1
			c-0.7-0.4-1-1.2-0.6-2c0.1-0.3,0.3-0.4,0.6-0.6c0.4-0.2,0.9-0.3,1.4-0.1l17.6,8.8l5.3-10.6L718.6,762c-2.7,5-5.5,9.6-8.3,13.7
			c-15.7,22.9-35.6,31.4-44.4,31.4c-4.1,0-9.7-1.2-15.7-2.4c-8.1-1.6-17.2-3.5-26.4-3.5c-2.2,0-4.3,0.1-6.3,0.3
			c-24.2,2.4-32.8,15.4-32.8,26.8c0,4,3.1,7.4,7.1,7.7c0.3,0,2.9,0.2,6.5,0.4c-7,3.5-10.8,10.2-10.8,18.9c0,2.5,0.3,4.9,0.9,7.2
			c0.9,3.3,3.9,5.7,7.3,5.8c0,0,0.7,0,1.9,0c-3.9,2.6-8.4,8.1-8.4,19.2c0,3.2,0.4,6.3,1.2,9.2c0.9,3.3,4,5.6,7.4,5.6
			c0.1,0,0.2,0,0.3,0c0,0,1.5-0.1,4-0.1c-7.4,7.5-11,14.9-10.9,22.5c0,5.3,2,10.5,5.6,15.4c1.4,1.8,2.9,3.6,4.8,5.4
			c1.2,1.2,2.9,1.9,4.6,2.1c0,0,0,0,0,0c0.2,0,5.8,0.6,14.7,0.6c5.3,0,11.9-0.2,19.3-0.8l-4.9,9.8c28.1,2.4,68-5.7,97.9-27.5
			c40.9-29.9,61.4-55.4,119.8-130.1c58.5-74.7,62.5-135.5,62.5-135.5s20.5,15.6,29.5,6.6C954.2,661.5,947.3,667.8,933.2,640.4z
			 M739.1,239.9c0,0,21.1-11.1,35.8,7.7c14.7,18.8,5.4,53.3-10,58.9c-15.4,5.7-21.9-6.7-23.2-8c0,0,15.4-10.5,15.4-24.4
			c0-13.9-10-15.2-18-15.2V239.9z M249.5,247.7c14.7-18.8,35.8-7.7,35.8-7.7v19c-8,0-18,1.3-18,15.2c0,13.9,15.4,24.4,15.4,24.4
			c-1.3,1.3-7.7,13.6-23.2,8C244.1,300.9,234.8,266.4,249.5,247.7z M517.2,565.7c-1.4-0.1-2.8-0.2-4.1-0.2h-2.1
			c-1.4,0-2.8,0.1-4.1,0.2c-44.6,3.9-89.9-3.5-129.7-24.2c-67.4-35-78.4-102.2-78.4-102.2c-3.9,16.2-1.3,73.1-1.3,73.1
			c-3-3.2-5.8-6.5-8.5-9.8c-2.5-3.1-4.9-6.3-7.1-9.6c-10-14.7-17.2-31.3-21.1-48.7c-4.3-19.1-3.4-38.4-2.2-57.8
			c1.1-18,6.3-33.5,14.1-49.7c7.4-15.4,15.6-30.4,24.6-44.9c-12.3-5.7-19.5-21.1-19.5-21.1c14.1,0,19-5.1,19-5.1
			s-1.5-71.3,56.6-122.2c10.6-9.3,22.2-17.6,34.7-24c20.9-10.7,44.8-16.2,68.2-12c10.6,1.9,20.8,5.8,30.1,11.3
			c4.8,2.8,9.2,6.1,13.4,9.6c3,2.5,5.3,5.7,8.2,8.3c1.3,1.2,2.3,1.8,3.1,1.8h2.2c0.8-0.1,1.8-0.6,3.1-1.8c2.9-2.6,5.2-5.8,8.2-8.3
			c4.2-3.6,8.7-6.8,13.4-9.6c9.2-5.5,19.5-9.3,30.1-11.3c23.4-4.2,47.3,1.3,68.2,12c12.6,6.5,24.2,14.7,34.7,24
			c58.1,50.9,56.6,122.2,56.6,122.2s4.9,5.1,19,5.1c0,0-7.2,15.4-19.5,21.1c9,14.5,17.2,29.5,24.6,44.9c7.8,16.2,13,31.7,14.1,49.7
			c1.2,19.4,2.1,38.7-2.2,57.8c-3.9,17.4-11.1,33.9-21.1,48.7c-2.2,3.3-4.6,6.5-7.1,9.6c-2.7,3.4-5.6,6.7-8.5,9.8
			c0,0,2.6-56.9-1.3-73.1c0,0-11.1,67.2-78.4,102.2C607.2,562.2,561.8,569.7,517.2,565.7z M621,940.5c-8.6,0-14-0.5-14-0.5
			c-10.5-10.1-11.3-20.5,1-32.8c0,0,34.9,0.7,39.4,0.7c4.6,0,9.9-2,10.9-6.3c1-4.3-9.1-6.2-22.9-7c-4.6-0.3-10.3-0.4-15.9-0.4
			c-11.1,0-21.7,0.4-21.7,0.4c-0.6-2.1-0.9-4.4-0.9-7.1c0-7.9,2.7-11.4,5.2-13h24.7c29.1,0,28.6-5.5,28.6-5.5
			c1.7-6.8-9.5-6.2-24.1-7.1c-14.7-1-35.4-1.3-35.4-1.3c-0.4-1.6-0.7-3.3-0.7-5.3c0-15.7,15.6-14.2,26-14.7
			c8.4-0.4,16.8-0.9,24.9-3.4c11.2-3.5-12.2-7.1-20.8-7.1c-8.7,0-33-1.7-33-1.7c0-9.6,8.7-17.4,25.9-19.1c1.8-0.2,3.7-0.3,5.5-0.3
			c15.5,0,31.5,5.9,42.2,5.9c12,0,34-10.2,50.8-34.7c2.9-4.3,5.9-9.2,8.8-14.6c0.9-1.7,1.8-3.4,2.7-5.2c0,0,16.1-37.9,22.8-72.6
			c6.8-34.7,0.6-82,0.6-82s-36.3,54.2-104.6,68.9l-32.8-49.8c0,0,140.5-35.5,191.8-173.7c0,0,75.7,73,71.8,196.1
			c-3.9,123.1-129.7,247-173.3,273.7c-19,11.6-41.5,16.5-60.2,18.6C635.4,940.2,627.3,940.5,621,940.5z"/>
		<ellipse class="st2" cx="431.5" cy="281.6" rx="19.6" ry="21.1"/>
		<ellipse class="st2" cx="584.7" cy="281.6" rx="19.6" ry="21.1"/>
		<path class="st2" d="M517.7,369.6c1.2,0,2.1-0.2,2.9-0.8c0.4-0.3,0.7-0.6,1-1.1c2.7-4.1,14.7-22,27.3-23.3
			c0.8-0.1,1.5-0.1,2.1-0.1c0.2,0,0.4,0,0.6,0c0.4,0,0.8,0,1.1,0c0.2,0,0.4,0.1,0.6,0.1c0.3,0,0.6,0.1,0.8,0.1
			c0.2,0,0.3,0.1,0.5,0.1c0.2,0.1,0.4,0.1,0.6,0.2c0.2,0.1,0.3,0.1,0.4,0.2c0.2,0.1,0.3,0.2,0.5,0.3c0.1,0.1,0.2,0.2,0.3,0.2
			c0.1,0.1,0.3,0.2,0.4,0.3c0.1,0.1,0.2,0.2,0.3,0.3c0.1,0.1,0.2,0.2,0.3,0.3c0.1,0.1,0.1,0.2,0.2,0.3c0.1,0.1,0.2,0.2,0.2,0.4
			c0.1,0.1,0.1,0.2,0.2,0.3c0.1,0.1,0.1,0.3,0.2,0.4c0,0.1,0.1,0.2,0.1,0.3c0.1,0.2,0.2,0.4,0.2,0.6c0.1,0.1,0.1,0.3,0.2,0.4
			c0,0.1,0.1,0.2,0.1,0.3c0.1,0.1,0.1,0.3,0.2,0.4c0,0.1,0.1,0.1,0.1,0.2c0.1,0.2,0.3,0.3,0.4,0.5c0,0,0,0,0.1,0
			c0.1,0.1,0.3,0.2,0.5,0.3c0.1,0,0.2,0.1,0.2,0.1c0.1,0.1,0.2,0.1,0.4,0.2c0,0,0,0,0.1,0c0.4,0,3.7,0,4.7-7.1
			c1.2-7.6-9.9-11.3-20.6-9.8c-5.2,0.7-9.8,4.1-13.7,7.4c-4,3.5-7.8,7.7-10.5,12.3c-1.9,3.4-2.7,7.2-3.5,11
			C517.4,365.5,516.3,369.6,517.7,369.6z"/>
		<path class="st2" d="M461.1,351C461.2,351,461.2,351,461.1,351c0.2,0,0.3-0.1,0.5-0.2c0.1,0,0.2-0.1,0.2-0.1
			c0.2-0.1,0.3-0.2,0.5-0.3c0,0,0,0,0.1,0c0.2-0.1,0.3-0.3,0.4-0.5c0-0.1,0.1-0.1,0.1-0.2c0.1-0.1,0.2-0.2,0.2-0.4
			c0-0.1,0.1-0.2,0.1-0.3c0.1-0.1,0.1-0.2,0.2-0.4c0.1-0.2,0.2-0.4,0.2-0.6c0-0.1,0.1-0.2,0.1-0.3c0.1-0.1,0.1-0.3,0.2-0.4
			c0.1-0.1,0.1-0.2,0.2-0.3c0.1-0.1,0.1-0.2,0.2-0.4c0.1-0.1,0.1-0.2,0.2-0.3c0.1-0.1,0.2-0.2,0.3-0.3c0.1-0.1,0.2-0.2,0.3-0.3
			c0.1-0.1,0.2-0.2,0.4-0.3c0.1-0.1,0.2-0.2,0.3-0.2c0.2-0.1,0.3-0.2,0.5-0.3c0.1-0.1,0.3-0.1,0.4-0.2c0.2-0.1,0.4-0.1,0.6-0.2
			c0.2,0,0.3-0.1,0.5-0.1c0.3-0.1,0.5-0.1,0.8-0.1c0.2,0,0.4-0.1,0.6-0.1c0.3,0,0.7,0,1.1,0c0.2,0,0.4,0,0.6,0
			c0.6,0,1.3,0.1,2.1,0.1c12.6,1.3,24.6,19.2,27.3,23.3c0.3,0.5,0.6,0.8,1,1.1c0.8,0.6,1.7,0.8,2.9,0.8c1.4,0,0.3-4.2,0.2-4.7
			c-0.7-3.8-1.5-7.6-3.5-11c-2.7-4.7-6.4-8.8-10.5-12.3c-3.8-3.3-8.5-6.7-13.7-7.4c-10.7-1.5-21.7,2.2-20.6,9.8
			C457.5,351,460.7,351,461.1,351z"/>
		<path class="st2" d="M672.1,380.7c-0.7-5.2-3-10.1-6.3-14.5c0,0-34,48.2-152.9,48.2h-1.7c-118.9,0-152.9-48.2-152.9-48.2
			c-3.3,4.5-5.6,9.3-6.3,14.5c-3.3,25.3,19.3,83.9,88.2,101.1c0,0,44.3,10,70.2,8.4l2.5-0.1c25.9,1.9,71-8.3,71-8.3
			C652.8,464.6,675.4,406,672.1,380.7z M627.8,438.6c-0.1,1.3-0.5,2.5-1.3,3.5c-5,7.2-29.2,33.4-115.4,36.6c0,0-93.2,1.9-120.4-36
			c-0.7-1-1.1-2.1-1.2-3.3c-0.7-6-2.2-25.3,3.6-35.2c0.1-0.2,0.5-0.3,0.7-0.2c4.5,2.5,44,23.2,117.3,21.8
			c72.5-1.4,108.2-19.2,112.8-21.7c0.3-0.1,0.6,0,0.7,0.3C625.5,407.2,629.2,420.2,627.8,438.6z"/>
		<path class="st2" d="M360.4,609c-0.3-0.1-0.5-0.4-0.6-0.6c-4.5,8.8-8.3,17.9-12.9,26.6c-1.4,2.6-2.8,5.1-4.3,7.6
			c0.4-0.2,0.9-0.2,1.3,0l5.9,3l11.4,5.7l16.8-33.5l-11.5-5.7L360.4,609z"/>
	</g>
	<g id="white">
		<path class="st3" d="M282.7,298.6c0,0-15.4-10.5-15.4-24.4c0-13.9,10-15.2,18-15.2v-19c0,0-21.1-11.1-35.8,7.7s-5.4,53.3,10,58.9
			C275,312.2,281.4,299.9,282.7,298.6z"/>
		<path class="st3" d="M774.9,247.7c-14.7-18.8-35.8-7.7-35.8-7.7v19c8,0,18,1.3,18,15.2c0,13.9-15.4,24.4-15.4,24.4
			c1.3,1.3,7.7,13.6,23.2,8C780.3,300.9,789.5,266.4,774.9,247.7z"/>
		<path class="st3" d="M654.1,326.9C654.1,326.9,654.1,326.9,654.1,326.9c-1.8-0.3-17.3-2-28,10.7c0,0,26.9,11.2,39.6,28.5
			c3.3,4.5,5.6,9.3,6.3,14.5c3.3,25.3-19.3,83.9-88.2,101.1c0,0-45.2,10.2-71,8.3l-2.5,0.1c-26,1.7-70.2-8.4-70.2-8.4
			c-68.9-17.2-91.5-75.8-88.2-101.1c0.7-5.2,3-10.1,6.3-14.5c12.7-17.3,39.6-28.5,39.6-28.5c-10.7-12.7-26.2-11-28-10.8c0,0,0,0,0,0
			c-22.7,3.3-75,52-19.9,135.3s162,76.4,162,76.4s107,6.9,162-76.4C729.1,378.9,676.9,330.3,654.1,326.9z"/>
		<path class="st3" d="M366.2,300c1.9-19.1,10.4-63.3,43.2-70.4c32.8-7.1,68.9,18.3,81.6,28.6c12.7,10.2,16.4,11.2,20.1,11.2h1.7
			c3.7,0,7.3-1,20.1-11.2c12.7-10.2,48.8-35.7,81.6-28.6c32.8,7.1,41.3,51.3,43.2,70.4c1.6,15.5-1.7,23.5-3,26
			c4.4-5.6,26.7-37.9,9.4-89c-19.1-56.4-101.1-35.7-125.4-16.7c-6.4,5-12.9,10.1-20,14c-2.2,1.2-4.1,2-6,2.2h-1.7
			c-1.9-0.2-3.8-1-6-2.2c-7.1-3.9-13.6-9-20-14c-24.3-19-106.3-39.7-125.4,16.7c-17.3,51.1,5,83.4,9.4,89
			C367.9,323.5,364.6,315.5,366.2,300z"/>
		<path class="st3" d="M623.9,404.1c-4.6,2.5-40.2,20.3-112.8,21.7c-73.3,1.5-112.8-19.3-117.3-21.8c-0.2-0.1-0.6-0.1-0.7,0.2
			c-5.9,9.9-4.3,29.2-3.6,35.2c0.1,1.2,0.5,2.3,1.2,3.3c27.2,37.9,120.4,36,120.4,36c86.2-3.2,110.4-29.4,115.4-36.6
			c0.7-1,1.2-2.3,1.3-3.5c1.3-18.4-2.3-31.4-3.2-34.2C624.5,404.1,624.2,404,623.9,404.1z"/>
	</g>
	<g id="white_notepad">
		<path class="st3" d="M333.6,739.8L332,739c-2.5-1.2-5.4-0.3-6.7,2.1l-7.2-3.6l-17.9-9c-0.7-0.4-1.6-0.1-2,0.6
			c-0.4,0.7-0.1,1.6,0.6,2l17.9,9l7.2,3.6l-2.8,5.5l-7.2-3.6l-17.9-9c-0.3-0.2-0.7-0.2-1-0.1c-0.4,0.1-0.7,0.4-0.9,0.7
			c-0.4,0.7-0.1,1.6,0.6,2l1.5,0.8l16.4,8.2l7.2,3.6c-1.1,2.5-0.1,5.4,2.3,6.6l1.6,0.8c2.5,1.3,5.6,0.2,6.8-2.3l5.2-10.4
			C337.1,744.2,336.1,741.1,333.6,739.8z"/>
		<path class="st3" d="M355.5,698.3l-1.6-0.8c-2.5-1.2-5.4-0.3-6.7,2.1l-8.1-4.1L322,687c-0.7-0.4-1.6-0.1-2,0.6
			c-0.4,0.7-0.1,1.6,0.6,2l17.1,8.5l8.1,4.1l-2.8,5.5l-8.1-4.1l-17.1-8.6c-0.7-0.4-1.6-0.1-2,0.6c-0.4,0.7-0.1,1.6,0.6,2l17.1,8.5
			l8.1,4.1c-1.1,2.5-0.1,5.4,2.3,6.6l1.6,0.8c2.5,1.3,5.6,0.2,6.8-2.3l5.2-10.4C359,702.6,358,699.6,355.5,698.3z"/>
		<path class="st3" d="M377.4,654l-1.6-0.8c-2.5-1.2-5.4-0.3-6.7,2.1l-7.8-3.9l-11.4-5.7l-5.9-3c-0.4-0.2-0.9-0.2-1.3,0
			c-0.3,0.1-0.5,0.3-0.7,0.6c-0.1,0.2-0.1,0.5-0.1,0.7c0,0.5,0.3,1,0.8,1.2l5.7,2.9l11.6,5.8l7.8,3.9l-2.8,5.5l-7.8-3.9l-12.1-6.1
			l-5.2-2.6c-0.7-0.4-1.6-0.1-2,0.6c-0.4,0.7-0.1,1.6,0.6,2l5,2.5l12.4,6.2l7.8,3.9c-1.1,2.5-0.1,5.4,2.3,6.6l1.6,0.8
			c2.5,1.3,5.6,0.2,6.8-2.3l5.2-10.4C380.9,658.3,379.9,655.2,377.4,654z"/>
		<path class="st3" d="M399.3,609.6l-1.6-0.8c-2.5-1.2-5.4-0.3-6.7,2.1l-7.6-3.8l-17.6-8.8c-0.5-0.2-1-0.2-1.4,0.1
			c-0.2,0.1-0.5,0.3-0.6,0.6c-0.4,0.7-0.1,1.6,0.6,2l4.1,2.1l13.5,6.7l7.5,3.8l-2.8,5.5l-7.5-3.8l-11.4-5.7l-6.2-3.1
			c-0.3-0.1-0.5-0.2-0.8-0.1c-0.5,0.1-0.9,0.3-1.1,0.8c-0.2,0.5-0.2,1,0.1,1.4c0.1,0.2,0.3,0.5,0.6,0.6l6.1,3.1l11.5,5.7l7.6,3.8
			c-1.1,2.5-0.1,5.4,2.3,6.6l1.6,0.8c2.5,1.3,5.6,0.2,6.8-2.3l5.2-10.4C402.8,613.9,401.8,610.9,399.3,609.6z"/>
	</g>
	<g id="dark_gray">
		<path class="st4" d="M712.3,477.8c7.5-14.2,11.3-26.6,12.9-33.2c2.5,20.3,0.4,67.3,0.4,67.8l-0.1,2.7l1.9-2c3-3.2,5.9-6.6,8.6-9.9
			c2.5-3.1,4.9-6.4,7.1-9.7c10.2-15.1,17.4-31.6,21.3-49c4.2-18.8,3.5-37.4,2.2-58c-1-16.3-5.4-31.8-14.2-50.1
			c-7.1-14.9-15.2-29.7-24-44.1c11.9-6.1,18.7-20.5,19-21.1l0.7-1.4h-1.6c-11.6,0-16.8-3.6-18-4.6c0-3-0.3-19.9-6.5-41.8
			c-6.3-22.2-20.2-54.2-50.4-80.7c-11.3-9.9-23.1-18.1-35-24.1c-17.3-8.8-35.4-13.5-52.5-13.5c-5.5,0-11,0.5-16.3,1.4
			c-10.7,1.9-20.9,5.8-30.4,11.4c-4.7,2.8-9.3,6.1-13.6,9.7c-1.6,1.4-3.1,3-4.5,4.5c-1.2,1.3-2.4,2.7-3.8,3.8
			c-1.1,1-1.9,1.5-2.5,1.6H511c-0.6-0.1-1.4-0.6-2.5-1.6c-1.3-1.2-2.6-2.5-3.8-3.8c-1.4-1.5-2.8-3.1-4.5-4.5
			c-4.3-3.7-8.9-6.9-13.6-9.7c-9.5-5.6-19.7-9.4-30.4-11.4c-5.3-1-10.8-1.4-16.3-1.4c-17.1,0-35.3,4.7-52.5,13.5
			c-11.9,6.1-23.6,14.2-35,24.1c-30.2,26.5-44.1,58.5-50.4,80.7c-6.2,21.9-6.5,38.9-6.5,41.8c-1.2,1-6.4,4.6-18,4.6H276l0.7,1.4
			c0.3,0.6,7.1,15,19,21.1c-8.8,14.3-16.9,29.1-24,44.1c-8.8,18.4-13.2,33.8-14.2,50.1c-1.3,20.6-2,39.2,2.2,58
			c3.9,17.5,11,34,21.3,49c2.2,3.3,4.6,6.5,7.1,9.7c2.7,3.3,5.5,6.6,8.6,9.9l1.9,2l-0.1-2.7c0-0.5-2.1-47.6,0.4-67.8
			c1.7,6.6,5.4,19,12.9,33.2c10.3,19.4,29.9,46.4,64.9,64.6c31.9,16.6,69.1,25.3,107.5,25.3c7.6,0,15.2-0.3,22.8-1
			c1.3-0.1,2.6-0.2,4.1-0.2l2.1,0c1.4,0,2.8,0.1,4.1,0.2c7.6,0.7,15.3,1,22.8,1c38.4,0,75.5-8.8,107.5-25.3
			C682.5,524.2,702,497.2,712.3,477.8z M371.8,327.6l-1.2-1.4l-0.4-0.4l-0.1,0c0-0.1-0.1-0.2-0.1-0.3l0-0.1l-0.1-0.1
			c-4.5-5.9-26.3-37.7-9.2-88c10.1-29.7,37-35.9,57.8-35.9c26.5,0,53.8,10.2,66,19.7c6,4.7,12.8,10,20.1,14.1c2,1.1,4.1,2.1,6.4,2.3
			l0,0h0h1.7h0l0,0c2.3-0.2,4.4-1.3,6.4-2.3c7.3-4,14.1-9.4,20.1-14.1c12.2-9.6,39.5-19.7,66-19.7c20.8,0,47.7,6.2,57.8,35.9
			c17.1,50.4-4.7,82.2-9.2,88l-0.1,0.1l0,0.1c0,0.1-0.1,0.2-0.1,0.3l-0.1,0l-0.4,0.4l-1.2,1.4l1.8,0.3c11.3,1.7,28.2,14.1,37.1,34
			c8.9,19.8,13,53.2-17.8,99.8c-46.6,70.6-130.5,76.1-155.1,76.1c-3.8,0-6-0.1-6-0.1l-0.1,0l-0.1,0c0,0-2.2,0.1-6,0.1
			c-24.6,0-108.5-5.5-155.1-76.1c-30.8-46.6-26.7-80-17.8-99.8c8.9-19.8,25.7-32.3,37.1-34L371.8,327.6z"/>
		<path class="st4" d="M869.2,564.2c-5.8-21.4-14.2-42.3-24.9-61.8c-18.3-33.4-37.3-51.9-37.5-52.1l-1.1-1.1l-0.5,1.4
			c-26.4,71.1-77,114.3-114.7,138.1c-40.9,25.8-76.1,34.9-76.4,34.9l-1.4,0.3l0.8,1.2l32.8,49.8l0.4,0.6l0.7-0.1
			c35.5-7.6,62.2-26.1,78.4-40.2c13.5-11.8,22-22.6,25.3-27c1.1,10.3,4.9,49.5-0.9,79.1c-6.6,33.8-22.2,71.2-22.8,72.4
			c-0.8,1.7-1.8,3.4-2.7,5.2c-2.9,5.3-5.8,10.2-8.7,14.5c-17.2,25.2-39.3,34.3-49.9,34.3c-4.8,0-10.7-1.2-17.1-2.5
			c-7.7-1.6-16.5-3.4-25.1-3.4c-1.9,0-3.8,0.1-5.6,0.3c-16.8,1.7-26.8,9.2-26.8,20.1v0.9l0.9,0.1c0.2,0,24.5,1.7,33.1,1.7
			c8.1,0,21.4,2.5,22.8,4.2c-0.2,0.2-0.7,0.5-2.2,1c-7.9,2.5-16.2,3-24.7,3.4c-1.1,0-2.2,0.1-3.4,0.1c-9.9,0.2-23.6,0.6-23.6,15.6
			c0,1.9,0.2,3.8,0.7,5.5l0.2,0.7l0.8,0c0.2,0,20.9,0.3,35.4,1.3c2.1,0.1,4.2,0.2,6.2,0.4c8.1,0.4,15.1,0.8,16.8,3.1
			c0.3,0.4,0.6,1.1,0.3,2.4l0,0.2l0,0.1c-0.2,0.4-2.4,4.5-27.6,4.5h-24.7H602l-0.2,0.2c-2.6,1.6-5.7,5.4-5.7,13.8
			c0,2.6,0.3,5.1,1,7.3l0.2,0.8l0.8,0c0.1,0,10.6-0.3,21.6-0.3c6.4,0,11.8,0.1,15.8,0.3c15.8,0.9,20.5,3,21.7,4.6
			c0.3,0.4,0.4,0.8,0.3,1.2c-0.9,3.8-5.8,5.5-10,5.5c-4.5,0-39.1-0.7-39.4-0.7l-0.4,0l-0.3,0.3c-6.3,6.3-9.4,12.3-9.3,18.1
			c0.1,5.5,2.8,10.7,8.4,16.1l0.3,0.2l0.3,0c0.1,0,5.5,0.5,14,0.5c7.8,0,15.7-0.4,23.4-1.3c24.1-2.6,44.5-8.9,60.6-18.7
			c23.8-14.5,66.4-53.9,101.8-100.9c31.7-42.1,69.8-106.3,72-173.6C879.7,618.9,876.5,591,869.2,564.2z"/>
		<path class="st4" d="M405.9,808.1c-1.8-0.2-3.7-0.3-5.6-0.3c-8.6,0-17.4,1.8-25.1,3.4c-6.3,1.3-12.3,2.5-17.1,2.5
			c-10.6,0-32.7-9.1-49.9-34.3c-1.9-2.8-3.9-6-5.9-9.3c-1.9-3.3-3.8-6.7-5.6-10.3c-0.5-1.3-16.2-38.6-22.8-72.4
			c-5.8-29.6-2-68.9-0.9-79.2c5.5,7.4,25.9,32.6,59.4,50.7l0.8,0.4l0.5-0.8c1.2-1.9,2.4-3.8,3.6-5.6c1.7-2.7,3.6-5.6,5.3-8.4
			l0.2-0.3l0-0.3c0-0.2,0-0.2,0-0.2c0-0.1,0.1-0.1,0.2-0.2l0.3-0.1l0.2-0.3c1.2-2.1,2.9-4.8,4.4-7.7c2.5-4.7,4.7-9.6,6.9-14.3
			c1.9-4.1,3.9-8.3,5.9-12.3l0.2-0.5l-0.3-0.5c0-0.1-0.1-0.3,0-0.4c0.1-0.2,0.3-0.2,0.4-0.2l0.5-0.1l0.2-0.5
			c0.1-0.1,0.2-0.3,0.2-0.4c0.1-0.1,0.1-0.3,0.2-0.4l0.5-0.9l-0.9-0.5c-48-23.9-111.7-70.1-142.9-153.9l-0.5-1.4l-1.1,1.1
			c-0.2,0.2-19.2,18.7-37.5,52.1c-10.7,19.6-19.1,40.4-24.9,61.8c-7.3,26.8-10.5,54.7-9.6,82.9c2.1,67.2,40.3,131.5,72,173.6
			c35.4,47,78,86.4,101.8,100.9c28.4,17.4,64.8,19.9,84,19.9c8.5,0,14-0.5,14-0.5l0.3,0l0.3-0.2c2.1-2.1,3.9-4.2,5.2-6.3
			c5.7-9,3.7-18.1-6.2-28l-0.3-0.3l-0.4,0c-0.3,0-34.9,0.7-39.4,0.7c-4.2,0-9.1-1.7-10-5.5c-0.1-0.4,0-0.8,0.3-1.2
			c1.2-1.6,5.9-3.7,21.7-4.6c4.1-0.2,9.4-0.3,15.8-0.3c11,0,21.5,0.3,21.6,0.3l0.8,0l0.2-0.8c0.6-2.3,1-4.7,1-7.3
			c0-8.5-3.1-12.2-5.7-13.8l-0.2-0.2h-0.3h-24.7c-25.2,0-27.4-4.2-27.6-4.5l0-0.1l0-0.2c-0.3-1.3,0-2,0.3-2.4
			c1.7-2.3,8.7-2.7,16.8-3.1c2-0.1,4-0.2,6.2-0.4c14.5-1,35.2-1.3,35.4-1.3l0.8,0l0.2-0.7c0.5-1.7,0.7-3.6,0.7-5.5
			c0-15.2-12.3-15.8-23.2-16.2c-0.6,0-1.1,0-1.7-0.1c-1.8-0.1-3.6-0.1-5.4-0.2c-7.1-0.2-14.4-0.4-21.3-2.6c-1.5-0.5-2-0.8-2.2-1
			c1.4-1.7,14.6-4.2,22.8-4.2c8.6,0,32.8-1.7,33.1-1.7l0.9-0.1v-0.9C432.6,817.3,422.6,809.8,405.9,808.1z"/>
	</g>
	<g id="purple">
		<path class="st5" d="M313.7,746.1l7.2,3.6c0.1,0,0.1,0.1,0.2,0.1c0.1,0,0.1,0,0.2,0c0.1,0,0.2-0.1,0.3-0.3l2.8-5.5
			c0.1-0.1,0.1-0.3,0-0.4c0-0.1-0.1-0.2-0.3-0.3l-7.2-3.6c-0.2-0.1-0.5,0-0.7,0.2l-2.8,5.5C313.4,745.7,313.5,746,313.7,746.1z"/>
		<path class="st5" d="M356.9,659.9l7.8,3.9c0.1,0,0.1,0.1,0.2,0.1c0.1,0,0.1,0,0.2,0c0.1,0,0.2-0.1,0.3-0.3l2.8-5.5
			c0.1-0.2,0-0.5-0.2-0.7l-7.8-3.9c-0.1-0.1-0.3-0.1-0.4,0c-0.1,0-0.2,0.1-0.3,0.3l-2.8,5.5C356.6,659.5,356.7,659.8,356.9,659.9z"
			/>
		<path class="st5" d="M334.7,704.1l8.1,4.1c0.1,0,0.1,0.1,0.2,0.1c0.1,0,0.1,0,0.2,0c0.1,0,0.2-0.1,0.3-0.3l2.8-5.5
			c0.1-0.2,0-0.5-0.2-0.7l-8.1-4.1c-0.1-0.1-0.3-0.1-0.4,0c-0.1,0-0.2,0.1-0.3,0.3l-2.8,5.5C334.4,703.7,334.5,704,334.7,704.1z"/>
		<path class="st5" d="M719,761.8c0-0.1-0.1-0.2-0.3-0.3L388.9,596.1c-0.1-0.1-0.3-0.1-0.4,0c-0.1,0-0.2,0.1-0.3,0.3l-5.3,10.6
			c-0.1,0.2,0,0.5,0.2,0.7l7.6,3.8c0.2,0.1,0.5,0,0.7-0.2c1.2-2.2,3.9-3,6.1-1.9l1.6,0.8c1.1,0.5,1.9,1.5,2.3,2.7
			c0.4,1.2,0.3,2.4-0.3,3.5l-5.2,10.4c-0.5,1.1-1.5,1.9-2.7,2.3c-1.2,0.4-2.4,0.3-3.5-0.3l-1.6-0.8c-2.2-1.1-3.1-3.7-2.1-6
			c0.1-0.2,0-0.5-0.2-0.7l-7.6-3.8c-0.1-0.1-0.3-0.1-0.4,0c-0.1,0-0.2,0.1-0.3,0.3l-16.8,33.5c-0.1,0.2,0,0.5,0.2,0.7l7.8,3.9
			c0.2,0.1,0.5,0,0.7-0.2c1.2-2.2,3.9-3,6.1-1.9l1.6,0.8c1.1,0.5,1.9,1.5,2.3,2.7c0.4,1.2,0.3,2.4-0.3,3.5L374,671
			c-1.1,2.3-3.9,3.2-6.2,2l-1.6-0.8c-2.2-1.1-3.1-3.7-2.1-6c0.1-0.2,0-0.5-0.2-0.7l-7.8-3.9c-0.2-0.1-0.5,0-0.7,0.2l-16.8,33.5
			c-0.1,0.1-0.1,0.3,0,0.4c0,0.1,0.1,0.2,0.3,0.3l8.1,4.1c0.2,0.1,0.5,0,0.7-0.2c1.2-2.2,3.9-3,6.1-1.9l1.6,0.8
			c2.3,1.1,3.2,3.9,2,6.2l-5.2,10.4c-1.1,2.3-3.9,3.2-6.2,2l-1.6-0.8c-2.2-1.1-3.1-3.7-2.1-6c0.1-0.2,0-0.5-0.2-0.7l-8.1-4.1
			c-0.1-0.1-0.3-0.1-0.4,0c-0.1,0-0.2,0.1-0.3,0.3l-15.7,31.2c-0.1,0.2,0,0.5,0.2,0.7l7.2,3.6c0.2,0.1,0.5,0,0.7-0.2
			c1.2-2.2,3.9-3,6.1-1.9l1.6,0.8c1.1,0.5,1.9,1.5,2.3,2.7c0.4,1.2,0.3,2.4-0.3,3.5l-5.2,10.4c-0.5,1.1-1.5,1.9-2.7,2.3
			c-1.2,0.4-2.4,0.3-3.5-0.3l-1.6-0.8c-2.2-1.1-3.1-3.7-2.1-6c0.1-0.2,0-0.5-0.2-0.7l-7.2-3.6c-0.1-0.1-0.3-0.1-0.4,0
			c-0.1,0-0.2,0.1-0.3,0.3l-7,14c-0.1,0.1-0.1,0.3,0,0.5c2.7,4.9,5.4,9.5,8.1,13.4c15.8,23,35.9,31.6,44.8,31.6
			c4.1,0,9.8-1.2,15.8-2.4c8-1.6,17.1-3.5,26.3-3.5c2.1,0,4.2,0.1,6.2,0.3c23.8,2.4,32.3,15.1,32.3,26.3c0,3.8-2.9,6.9-6.7,7.2
			c-0.3,0-2.5,0.2-5.8,0.4c-0.2,0-0.4,0.2-0.5,0.4c0,0.2,0.1,0.4,0.2,0.5c6.6,3.6,9.8,9.6,9.8,18.5c0,2.5-0.3,4.8-0.9,7.1
			c-0.8,3.1-3.6,5.3-6.9,5.4l-1.9,0c-0.2,0-0.4,0.1-0.5,0.4c-0.1,0.2,0,0.4,0.2,0.6c3.7,2.5,8.2,7.8,8.2,18.8c0,3.2-0.4,6.2-1.2,9
			c-0.9,3.1-3.7,5.2-6.9,5.2l-0.3,0c-0.3,0-1.7-0.1-3.9-0.1c-0.2,0-0.4,0.1-0.5,0.3c-0.1,0.2,0,0.4,0.1,0.5
			c7.3,7.4,10.8,14.7,10.7,22.2c0,4.2-1.3,8.4-3.7,12.4c-0.1,0.1-0.1,0.3-0.1,0.4c0,0.1,0.1,0.2,0.3,0.3l172.9,86.7
			c0.1,0,0.1,0.1,0.2,0.1c0.1,0,0.1,0,0.2,0c0.1,0,0.2-0.1,0.3-0.3l38.4-76.7c0.1-0.2,0.1-0.4,0-0.5c-0.1-0.2-0.3-0.2-0.5-0.2
			c-6.5,0.6-13,0.8-19.2,0.8c-8.8,0-14.4-0.5-14.7-0.6c-1.6-0.2-3.1-0.9-4.3-2c-1.8-1.7-3.3-3.5-4.7-5.4c-3.6-4.9-5.5-10-5.5-15.1
			c-0.1-7.5,3.4-14.8,10.7-22.2c0.1-0.1,0.2-0.4,0.1-0.5c-0.1-0.2-0.2-0.3-0.5-0.3c-2.1,0.1-3.6,0.1-4,0.1l-0.2,0
			c-3.2,0-6-2.2-6.9-5.2c-0.8-2.8-1.2-5.9-1.2-9c0-11,4.4-16.3,8.2-18.8c0.2-0.1,0.3-0.3,0.2-0.6s-0.3-0.4-0.5-0.4l-1.9,0
			c-3.2,0-6-2.3-6.9-5.4c-0.6-2.3-0.9-4.7-0.9-7.1c0-8.4,3.7-15,10.5-18.5c0.2-0.1,0.3-0.3,0.3-0.5c0-0.2-0.2-0.4-0.5-0.4
			c-3.6-0.2-6.1-0.4-6.5-0.4c-3.7-0.3-6.7-3.4-6.7-7.2c0-11.1,8.5-23.9,32.3-26.3c2-0.2,4.1-0.3,6.2-0.3c9.2,0,18.3,1.8,26.4,3.5
			c6,1.2,11.7,2.4,15.8,2.4c9,0,29-8.6,44.8-31.6c2.8-4,5.6-8.6,8.3-13.7C719.1,762.1,719.1,761.9,719,761.8z"/>
		<path class="st5" d="M379.1,615.7l7.5,3.8c0.1,0,0.1,0.1,0.2,0.1c0.2,0,0.4-0.1,0.4-0.3l2.8-5.5c0.1-0.1,0.1-0.3,0-0.4
			c0-0.1-0.1-0.2-0.3-0.3l-7.5-3.8c-0.1-0.1-0.3-0.1-0.4,0c-0.1,0-0.2,0.1-0.3,0.3l-2.8,5.5C378.7,615.3,378.8,615.6,379.1,615.7z"
			/>
	</g>
	<path id="gray_2" class="st6" d="M576.7,318.8c-3.8-4.2-9.8-6.6-16.4-6.6c-2.9,0-5.9,0.5-8.8,1.3c-4,1.2-8.3,2.8-12.4,4.2
		c-9.7,3.5-19.7,7.1-28.1,7.2c-8.4-0.1-18.4-3.7-28.1-7.2c-4.1-1.5-8.4-3-12.4-4.2c-2.9-0.9-5.9-1.3-8.8-1.3h0
		c-6.6,0-12.6,2.4-16.4,6.6c-3.4,3.7-4.8,8.5-4.3,13.9c1.6,15.1,18.8,18.8,18.9,18.8c0,0,0.1,0,0.1,0c0.4,0,0.8,0,1.1-0.1
		c0.3-0.1,0.4-0.3,0.4-0.6c0-0.2-0.2-0.4-0.5-0.4c0,0,0,0,0,0l-0.1,0c-0.5,0-3.2-0.3-4.2-6.7c-0.3-1.8,0.2-3.5,1.4-5
		c2.4-2.8,7.8-4.6,13.9-4.6c1.6,0,3.1,0.1,4.7,0.3c5.4,0.8,10.2,4.5,13.4,7.3c4.4,3.8,7.9,8,10.4,12.2c2,3.4,2.7,7.3,3.4,10.8
		c0,0.1,0,0.2,0.1,0.3c0.8,3.5,0.3,3.9,0.3,3.9c0,0,0,0,0,0c-1.2,0-1.9-0.2-2.6-0.7c-0.3-0.2-0.6-0.6-0.9-1
		c-0.1-0.1-0.3-0.2-0.4-0.2c-0.1,0-0.2,0-0.3,0.1c-0.2,0.2-0.3,0.5-0.1,0.7c2.6,4,5.1,6.2,10.7,6.5c0,0,0.1,0,0.1,0h0.2
		c0,0,0.1,0,0.1,0c5.6-0.3,8.1-2.5,10.7-6.5c0.2-0.2,0.1-0.5-0.1-0.7c-0.1-0.1-0.2-0.1-0.3-0.1c-0.2,0-0.3,0.1-0.4,0.2
		c-0.3,0.4-0.6,0.7-0.9,1c-0.6,0.5-1.4,0.7-2.6,0.7c0,0-0.5-0.4,0.2-3.9c0-0.1,0-0.2,0.1-0.3c0.7-3.5,1.4-7.5,3.4-10.8
		c2.5-4.3,6-8.4,10.4-12.2c3.2-2.8,8-6.5,13.4-7.3c1.6-0.2,3.1-0.3,4.7-0.3c6.1,0,11.5,1.8,13.9,4.6c1.2,1.4,1.7,3.1,1.4,5
		c-1,6.3-3.6,6.7-4.2,6.7l-0.1,0c0,0,0,0,0,0c-0.2,0-0.5,0.2-0.5,0.4c0,0.3,0.1,0.5,0.4,0.6c0.4,0.1,0.7,0.1,1.1,0.1
		c0,0,0.1,0,0.1,0c0.2,0,17.4-3.7,18.9-18.8C581.5,327.4,580,322.5,576.7,318.8z"/>
</g>
</svg>
