<?xml version="1.0" encoding="UTF-8"?>
<!DOCTYPE svg PUBLIC "-//W3C//DTD SVG 1.1//EN" "http://www.w3.org/Graphics/SVG/1.1/DTD/svg11.dtd">
<svg xmlns="http://www.w3.org/2000/svg" version="1.1" width="1024px" height="1024px" style="shape-rendering:geometricPrecision; text-rendering:geometricPrecision; image-rendering:optimizeQuality; fill-rule:evenodd; clip-rule:evenodd" xmlns:xlink="http://www.w3.org/1999/xlink">
<g><path style="opacity:0.998" fill="#7248b8" d="M 182.5,-0.5 C 401.833,-0.5 621.167,-0.5 840.5,-0.5C 909.714,9.01316 962.214,43.6798 998,103.5C 1011.46,128.366 1019.96,154.699 1023.5,182.5C 1023.5,401.5 1023.5,620.5 1023.5,839.5C 1010.62,922.877 964.954,980.044 886.5,1011C 868.315,1017.1 849.648,1020.77 830.5,1022C 617.833,1022.67 405.167,1022.67 192.5,1022C 110.578,1014.03 51.7449,973.195 16,899.5C 7.90719,880.077 2.40719,860.077 -0.5,839.5C -0.5,620.5 -0.5,401.5 -0.5,182.5C 9.01316,113.286 43.6798,60.786 103.5,25C 128.366,11.5434 154.699,3.04344 182.5,-0.5 Z"/></g>
<g><path style="opacity:1" fill="#fefdfe" d="M 902.5,84.5 C 923.664,82.3525 935.664,91.6859 938.5,112.5C 938.73,118.312 937.23,123.645 934,128.5C 897.193,165.64 860.026,202.474 822.5,239C 809.196,251.304 796.196,263.97 783.5,277C 772.279,288.299 759.612,290.299 745.5,283C 724.667,263.5 704.5,243.333 685,222.5C 675.934,202.356 681.434,187.856 701.5,179C 709.168,177.737 716.501,178.737 723.5,182C 735.471,192.97 747.138,204.304 758.5,216C 760.167,216.667 761.833,216.667 763.5,216C 806.805,174.363 849.805,132.363 892.5,90C 895.767,87.8703 899.1,86.037 902.5,84.5 Z"/></g>
<g><path style="opacity:1" fill="#fdfcfd" d="M 655.5,173.5 C 621.552,165.943 589.219,170.109 558.5,186C 530.269,203.272 511.269,227.772 501.5,259.5C 485.153,207.324 449.819,177.824 395.5,171C 366.032,167.287 338.365,172.62 312.5,187C 281.602,205.227 255.768,229.061 235,258.5C 223.578,274.333 213.411,291 204.5,308.5C 204.667,308.833 204.833,309.167 205,309.5C 219.789,301.07 235.622,295.737 252.5,293.5C 254.415,293.216 256.081,293.549 257.5,294.5C 248.272,300.89 240.105,308.557 233,317.5C 219.25,335.318 207.25,354.318 197,374.5C 195.855,375.636 194.688,376.636 193.5,377.5C 171.41,385.8 152.91,399.134 138,417.5C 143.905,363.56 159.571,312.56 185,264.5C 208.02,223.813 239.52,191.313 279.5,167C 306.634,149.287 336.3,138.287 368.5,134C 409.971,131.602 446.637,143.602 478.5,170C 486.636,177.135 494.47,184.635 502,192.5C 527.788,162.181 560.288,143.014 599.5,135C 624.112,131.654 648.112,134.154 671.5,142.5C 664.815,152.205 659.482,162.538 655.5,173.5 Z"/></g>
<g><path style="opacity:1" fill="#3a414d" d="M 655.5,173.5 C 641.404,225.597 654.737,269.097 695.5,304C 719.995,322.545 747.661,330.711 778.5,328.5C 789.501,343.827 799.501,359.827 808.5,376.5C 843.438,442.143 869.604,511.143 887,583.5C 891.187,602.646 894.021,621.979 895.5,641.5C 895.817,645.702 895.483,649.702 894.5,653.5C 876.544,625.71 853.71,602.71 826,584.5C 839.922,617.071 848.922,651.071 853,686.5C 857.448,776.271 822.615,845.938 748.5,895.5C 781.513,805.96 770.013,722.293 714,644.5C 694.705,617.705 671.872,594.372 645.5,574.5C 645.44,573.957 645.107,573.624 644.5,573.5C 643.173,589.995 643.173,606.328 644.5,622.5C 676.728,671.478 690.228,725.145 685,783.5C 676.854,815.309 659.021,840.143 631.5,858C 597.86,878.869 561.193,890.202 521.5,892C 473.644,896.119 428.31,887.453 385.5,866C 324.15,830.7 302.984,778.533 322,709.5C 329.107,678.488 341.441,649.821 359,623.5C 359.667,606.833 359.667,590.167 359,573.5C 305.984,614.184 268.65,666.184 247,729.5C 235.464,772.222 234.464,815.222 244,858.5C 247.699,870.921 251.366,883.254 255,895.5C 177.683,843.519 143.35,770.853 152,677.5C 155.981,645.909 164.481,615.576 177.5,586.5C 176.998,585.479 176.332,585.312 175.5,586C 147.573,603.926 125.073,627.093 108,655.5C 108.079,637.379 109.745,619.379 113,601.5C 129.448,523.267 156.615,448.933 194.5,378.5C 194.376,377.893 194.043,377.56 193.5,377.5C 194.688,376.636 195.855,375.636 197,374.5C 207.25,354.318 219.25,335.318 233,317.5C 240.105,308.557 248.272,300.89 257.5,294.5C 259.423,294.205 261.09,293.372 262.5,292C 258.967,291.757 255.633,292.257 252.5,293.5C 235.622,295.737 219.789,301.07 205,309.5C 204.833,309.167 204.667,308.833 204.5,308.5C 213.411,291 223.578,274.333 235,258.5C 255.768,229.061 281.602,205.227 312.5,187C 338.365,172.62 366.032,167.287 395.5,171C 449.819,177.824 485.153,207.324 501.5,259.5C 511.269,227.772 530.269,203.272 558.5,186C 589.219,170.109 621.552,165.943 655.5,173.5 Z"/></g>
<g><path style="opacity:1" fill="#1d323d" d="M 721.5,541.5 C 744.082,516.207 752.915,486.54 748,452.5C 738.899,402.067 709.399,371.234 659.5,360C 644.665,358.72 629.999,359.72 615.5,363C 581.78,372.239 549.113,384.239 517.5,399C 511.223,402.222 506.057,406.722 502,412.5C 497.569,407.194 492.403,402.694 486.5,399C 478.584,395.14 470.584,391.473 462.5,388C 436.343,378.725 410.01,370.059 383.5,362C 327.809,353.094 287.643,373.927 263,424.5C 250.075,458.859 252.075,492.193 269,524.5C 272.572,530.905 277.072,536.572 282.5,541.5C 266.441,551.372 251.941,563.372 239,577.5C 228.938,589.295 219.605,601.628 211,614.5C 201.414,566.397 200.081,518.064 207,469.5C 213.069,431.707 228.069,398.041 252,368.5C 289.249,326.65 335.416,309.15 390.5,316C 381.139,298.138 367.806,283.971 350.5,273.5C 415.11,267.392 465.61,291.058 502,344.5C 537.989,290.588 588.155,267.088 652.5,274C 635.079,284.491 621.746,298.824 612.5,317C 680.266,309.8 732.433,334.966 769,392.5C 784.655,419.465 794.322,448.465 798,479.5C 803.948,524.842 802.114,569.842 792.5,614.5C 778.44,592.259 761.44,572.425 741.5,555C 734.94,550.229 728.274,545.729 721.5,541.5 Z"/></g>
<g><path style="opacity:1" fill="#bdbbc6" d="M 257.5,294.5 C 256.081,293.549 254.415,293.216 252.5,293.5C 255.633,292.257 258.967,291.757 262.5,292C 261.09,293.372 259.423,294.205 257.5,294.5 Z"/></g>
<g><path style="opacity:1" fill="#fdfcfd" d="M 808.5,376.5 C 799.501,359.827 789.501,343.827 778.5,328.5C 799.854,325.747 819.354,318.08 837,305.5C 845.114,323.508 851.448,342.175 856,361.5C 860.678,379.586 863.678,397.92 865,416.5C 849.626,398.294 830.793,384.961 808.5,376.5 Z"/></g>
<g><path style="opacity:1" fill="#fdfdfd" d="M 721.5,541.5 C 712.257,548.788 701.924,553.955 690.5,557C 676.84,559.421 664.84,556.254 654.5,547.5C 669.004,541.846 681.504,533.179 692,521.5C 708.455,498.73 709.789,475.064 696,450.5C 693.666,447 690.832,444 687.5,441.5C 683.389,437.444 678.389,434.944 672.5,434C 648.441,432.352 625.775,437.018 604.5,448C 591.574,452.476 578.574,456.642 565.5,460.5C 549.079,465.696 532.746,471.196 516.5,477C 507.582,479.789 498.582,480.122 489.5,478C 472.847,472.393 456.18,466.893 439.5,461.5C 419.006,454.835 398.673,447.668 378.5,440C 361.233,433.818 343.567,432.151 325.5,435C 322.351,436.662 319.351,438.495 316.5,440.5C 307.033,449.428 301.199,460.428 299,473.5C 296.459,499.912 305.959,520.745 327.5,536C 333.812,540.138 340.479,543.638 347.5,546.5C 348.298,546.957 348.631,547.624 348.5,548.5C 330.992,559.968 312.992,560.468 294.5,550C 290.343,547.336 286.343,544.503 282.5,541.5C 277.072,536.572 272.572,530.905 269,524.5C 252.075,492.193 250.075,458.859 263,424.5C 287.643,373.927 327.809,353.094 383.5,362C 410.01,370.059 436.343,378.725 462.5,388C 470.584,391.473 478.584,395.14 486.5,399C 492.403,402.694 497.569,407.194 502,412.5C 506.057,406.722 511.223,402.222 517.5,399C 549.113,384.239 581.78,372.239 615.5,363C 629.999,359.72 644.665,358.72 659.5,360C 709.399,371.234 738.899,402.067 748,452.5C 752.915,486.54 744.082,516.207 721.5,541.5 Z"/></g>
<g><path style="opacity:1" fill="#1c323c" d="M 439.5,461.5 C 442.055,481.899 453.388,494.732 473.5,500C 499.234,506.682 523.9,504.016 547.5,492C 557.752,484.003 563.752,473.503 565.5,460.5C 578.574,456.642 591.574,452.476 604.5,448C 625.775,437.018 648.441,432.352 672.5,434C 678.389,434.944 683.389,437.444 687.5,441.5C 679.537,447.934 670.87,453.434 661.5,458C 659.26,458.977 656.927,459.477 654.5,459.5C 657.522,465.557 660.022,471.891 662,478.5C 664.445,503.731 653.279,519.231 628.5,525C 619.574,525.718 611.241,523.718 603.5,519C 597.69,514.854 592.19,510.354 587,505.5C 579.186,510.552 570.686,514.052 561.5,516C 556.833,518.667 552.167,521.333 547.5,524C 543.312,524.176 539.312,524.676 535.5,525.5C 521.473,527.357 510.307,534.023 502,545.5C 493.562,533.564 482.062,526.898 467.5,525.5C 463.688,524.676 459.688,524.176 455.5,524C 448.67,518.752 441.004,515.419 432.5,514C 427.077,511.54 421.91,508.707 417,505.5C 412.511,509.32 408.011,513.153 403.5,517C 383.462,530.033 365.295,527.866 349,510.5C 339.252,497.386 337.919,483.386 345,468.5C 346.753,465.995 348.253,463.329 349.5,460.5C 336.72,456.617 325.72,449.95 316.5,440.5C 319.351,438.495 322.351,436.662 325.5,435C 343.567,432.151 361.233,433.818 378.5,440C 398.673,447.668 419.006,454.835 439.5,461.5 Z"/></g>
<g><path style="opacity:1" fill="#898a90" d="M 316.5,440.5 C 325.72,449.95 336.72,456.617 349.5,460.5C 348.253,463.329 346.753,465.995 345,468.5C 337.919,483.386 339.252,497.386 349,510.5C 365.295,527.866 383.462,530.033 403.5,517C 408.011,513.153 412.511,509.32 417,505.5C 421.91,508.707 427.077,511.54 432.5,514C 441.004,515.419 448.67,518.752 455.5,524C 459.688,524.176 463.688,524.676 467.5,525.5C 449.764,524.579 433.764,529.412 419.5,540C 413.997,544.671 408.664,549.504 403.5,554.5C 390.986,553.73 378.319,552.896 365.5,552C 360.106,551.194 354.94,549.694 350,547.5C 349.617,548.056 349.117,548.389 348.5,548.5C 348.631,547.624 348.298,546.957 347.5,546.5C 340.479,543.638 333.812,540.138 327.5,536C 305.959,520.745 296.459,499.912 299,473.5C 301.199,460.428 307.033,449.428 316.5,440.5 Z"/></g>
<g><path style="opacity:1" fill="#898a91" d="M 687.5,441.5 C 690.832,444 693.666,447 696,450.5C 709.789,475.064 708.455,498.73 692,521.5C 681.504,533.179 669.004,541.846 654.5,547.5C 636.591,552.892 618.257,554.892 599.5,553.5C 582.267,534.886 560.934,525.552 535.5,525.5C 539.312,524.676 543.312,524.176 547.5,524C 552.167,521.333 556.833,518.667 561.5,516C 570.686,514.052 579.186,510.552 587,505.5C 592.19,510.354 597.69,514.854 603.5,519C 611.241,523.718 619.574,525.718 628.5,525C 653.279,519.231 664.445,503.731 662,478.5C 660.022,471.891 657.522,465.557 654.5,459.5C 656.927,459.477 659.26,458.977 661.5,458C 670.87,453.434 679.537,447.934 687.5,441.5 Z"/></g>
<g><path style="opacity:1" fill="#888990" d="M 565.5,460.5 C 563.752,473.503 557.752,484.003 547.5,492C 523.9,504.016 499.234,506.682 473.5,500C 453.388,494.732 442.055,481.899 439.5,461.5C 456.18,466.893 472.847,472.393 489.5,478C 498.582,480.122 507.582,479.789 516.5,477C 532.746,471.196 549.079,465.696 565.5,460.5 Z"/></g>
<g><path style="opacity:1" fill="#fdfdfd" d="M 467.5,525.5 C 482.062,526.898 493.562,533.564 502,545.5C 510.307,534.023 521.473,527.357 535.5,525.5C 560.934,525.552 582.267,534.886 599.5,553.5C 620.002,578.173 623.002,604.84 608.5,633.5C 629.492,656.152 642.492,682.819 647.5,713.5C 647.527,719.051 648.194,724.384 649.5,729.5C 650.108,734.944 649.442,739.944 647.5,744.5C 640.003,743.363 632.669,742.03 625.5,740.5C 620.071,738.988 614.404,738.321 608.5,738.5C 595.134,738.288 581.8,737.621 568.5,736.5C 542.175,735.524 515.842,734.857 489.5,734.5C 456.474,735.354 423.474,736.854 390.5,739C 379.069,740.345 367.736,742.178 356.5,744.5C 354.547,738.926 353.88,732.926 354.5,726.5C 357.602,690.648 371.268,659.648 395.5,633.5C 381.21,605.398 383.877,579.064 403.5,554.5C 408.664,549.504 413.997,544.671 419.5,540C 433.764,529.412 449.764,524.579 467.5,525.5 Z"/></g>
<g><path style="opacity:1" fill="#1c323c" d="M 441.5,571.5 C 448.326,570.957 454.659,572.457 460.5,576C 472.349,585.093 484.016,594.426 495.5,604C 500.36,607.418 505.027,607.084 509.5,603C 521.652,593.092 533.985,583.425 546.5,574C 554.758,571.573 562.758,572.239 570.5,576C 577.099,582.701 582.599,590.201 587,598.5C 588.606,606.01 586.773,612.51 581.5,618C 557.417,634.424 533.083,650.424 508.5,666C 504.833,666.667 501.167,666.667 497.5,666C 471.569,649.453 446.069,632.286 421,614.5C 417.775,609.601 416.775,604.268 418,598.5C 422.056,590.217 427.223,582.717 433.5,576C 436.354,574.603 439.02,573.103 441.5,571.5 Z"/></g>
<g><path style="opacity:1" fill="#564482" d="M 645.5,574.5 C 644.504,590.325 644.17,606.325 644.5,622.5C 643.173,606.328 643.173,589.995 644.5,573.5C 645.107,573.624 645.44,573.957 645.5,574.5 Z"/></g>
<g><path style="opacity:1" fill="#594589" d="M 895.5,641.5 C 896.648,645.981 896.815,650.648 896,655.5C 895.283,654.956 894.783,654.289 894.5,653.5C 895.483,649.702 895.817,645.702 895.5,641.5 Z"/></g>
<g><path style="opacity:1" fill="#c7c2d2" d="M 647.5,713.5 C 648.434,716.656 649.101,719.989 649.5,723.5C 649.5,725.5 649.5,727.5 649.5,729.5C 648.194,724.384 647.527,719.051 647.5,713.5 Z"/></g>
<g><path style="opacity:1" fill="#1d323c" d="M 649.5,723.5 C 650.29,724.609 650.79,725.942 651,727.5C 651.5,733.825 651.666,740.158 651.5,746.5C 661.024,748.2 668.19,753.2 673,761.5C 673.913,767.042 673.246,772.375 671,777.5C 667.319,780.36 663.152,781.193 658.5,780C 655.124,778.93 651.79,777.764 648.5,776.5C 647.558,776.608 646.725,776.941 646,777.5C 645.722,776.584 645.222,775.918 644.5,775.5C 621.01,771.372 597.344,768.538 573.5,767C 538.513,765.708 503.513,765.208 468.5,765.5C 454.64,765.363 440.973,766.029 427.5,767.5C 416.264,767.491 405.264,768.491 394.5,770.5C 386.592,770.679 378.926,771.679 371.5,773.5C 368.126,773.674 364.793,774.174 361.5,775C 359.881,775.236 358.881,776.069 358.5,777.5C 353.995,776.705 349.662,777.539 345.5,780C 337.479,782.411 332.645,779.577 331,771.5C 329.158,762.351 332.324,755.518 340.5,751C 344.288,749.022 348.121,747.189 352,745.5C 352.173,739.984 352.673,734.651 353.5,729.5C 353.5,734.833 353.5,740.167 353.5,745.5C 354.791,745.737 355.791,745.404 356.5,744.5C 367.736,742.178 379.069,740.345 390.5,739C 423.474,736.854 456.474,735.354 489.5,734.5C 511.657,735.874 533.991,736.874 556.5,737.5C 560.681,737.499 564.681,737.166 568.5,736.5C 581.8,737.621 595.134,738.288 608.5,738.5C 613.944,739.884 619.611,740.55 625.5,740.5C 632.669,742.03 640.003,743.363 647.5,744.5C 648.209,745.404 649.209,745.737 650.5,745.5C 650.821,739.974 650.488,734.64 649.5,729.5C 649.5,727.5 649.5,725.5 649.5,723.5 Z"/></g>
<g><path style="opacity:1" fill="#0e1d2b" d="M 489.5,734.5 C 515.842,734.857 542.175,735.524 568.5,736.5C 564.681,737.166 560.681,737.499 556.5,737.5C 533.991,736.874 511.657,735.874 489.5,734.5 Z"/></g>
<g><path style="opacity:1" fill="#c6c0d3" d="M 354.5,726.5 C 353.88,732.926 354.547,738.926 356.5,744.5C 355.791,745.404 354.791,745.737 353.5,745.5C 353.5,740.167 353.5,734.833 353.5,729.5C 353.263,728.209 353.596,727.209 354.5,726.5 Z"/></g>
<g><path style="opacity:1" fill="#a6a0b4" d="M 649.5,729.5 C 650.488,734.64 650.821,739.974 650.5,745.5C 649.209,745.737 648.209,745.404 647.5,744.5C 649.442,739.944 650.108,734.944 649.5,729.5 Z"/></g>
<g><path style="opacity:1" fill="#bdb9c8" d="M 608.5,738.5 C 614.404,738.321 620.071,738.988 625.5,740.5C 619.611,740.55 613.944,739.884 608.5,738.5 Z"/></g>
<g><path style="opacity:1" fill="#fdfdfd" d="M 468.5,765.5 C 503.513,765.208 538.513,765.708 573.5,767C 597.344,768.538 621.01,771.372 644.5,775.5C 641.609,783.239 636.609,789.406 629.5,794C 619.69,799.954 609.023,803.12 597.5,803.5C 530.822,803.802 464.155,803.469 397.5,802.5C 380.505,800.133 367.505,791.799 358.5,777.5C 358.881,776.069 359.881,775.236 361.5,775C 364.793,774.174 368.126,773.674 371.5,773.5C 379.396,773.235 387.063,772.235 394.5,770.5C 405.264,768.491 416.264,767.491 427.5,767.5C 441.36,767.637 455.027,766.971 468.5,765.5 Z"/></g>
<g><path style="opacity:1" fill="#c8c3d3" d="M 468.5,765.5 C 455.027,766.971 441.36,767.637 427.5,767.5C 440.973,766.029 454.64,765.363 468.5,765.5 Z"/></g>
<g><path style="opacity:1" fill="#c9c5d4" d="M 394.5,770.5 C 387.063,772.235 379.396,773.235 371.5,773.5C 378.926,771.679 386.592,770.679 394.5,770.5 Z"/></g>
<g><path style="opacity:1" fill="#b7afc7" d="M 397.5,802.5 C 464.155,803.469 530.822,803.802 597.5,803.5C 533.335,804.665 469.001,804.832 404.5,804C 401.964,803.814 399.631,803.314 397.5,802.5 Z"/></g>
</svg>
