<svg id="Layer_1" data-name="Layer 1" xmlns="http://www.w3.org/2000/svg" width="256" height="256" viewBox="0 0 256 256"><defs><style>.cls-1{fill:#58a867;}.cls-2{fill:#fff;}</style></defs><title>Rilla Forms v 4.3</title><rect class="cls-1" width="256" height="256" rx="45.71"/><path class="cls-2" d="M160.73,83.08a57,57,0,0,0-67,0c-.43.3-1.18.92-1,1.21s.73,0,1.48-.41c13.82-7,29.74-7.4,33-7.4s19.19.37,33,7.4c.75.4,1.32.65,1.48.41S161.15,83.38,160.73,83.08Z"/><path class="cls-2" d="M63.34,62.44c-.83,1.69-3.22,6-2.46,6.52s3.58-4.82,4-5.55c.57-.92,30.69-49.95,66.18-42.52,10.78,2.7,39.09,9.37,61.62,67.54.89,2.43,1.74,4.91,2.32,4.69s-.23-3.61-.59-5.11-12.11-63.82-62.21-74.89C119.45,10.55,88,12.17,63.34,62.44Z"/><path class="cls-2" d="M127.58,188.87a106.94,106.94,0,0,0,21.78-2.49,1.91,1.91,0,0,1,2.25,2v2.26c0,8.58-7.17,16.53-23.53,16.53s-23.69-8-23.69-16.53v-2.23a1.9,1.9,0,0,1,2.28-1.94A97.34,97.34,0,0,0,127.58,188.87Z"/><path class="cls-2" d="M132.71,140.14h-9.42a28.45,28.45,0,0,0-28.45,28.45v6.83a2.82,2.82,0,0,0,1.93,2.68c4.24,1.42,15.22,4.5,30.85,4.5a106,106,0,0,0,31.57-4.53,2.85,2.85,0,0,0,2-2.7v-6.78A28.45,28.45,0,0,0,132.71,140.14Zm-7.81,25.61c-1.87,1.94-10.62-1.65-13-6.08-2.6-4.88.63-8.45,5.17-7.09C124.25,154.72,126.78,163.8,124.9,165.75Zm19.17-6.08c-2.35,4.43-11.1,8-13,6.08s.65-11,7.8-13.17C143.44,151.22,146.67,154.79,144.07,159.67Z"/><path class="cls-2" d="M193.87,212.12c-1.11-1.28-27.33,22.78-65.87,22.79s-64.76-24.07-65.87-22.79S92.61,241.61,128,241.61,194.88,213.29,193.87,212.12Z"/><path class="cls-2" d="M48,105.13v34.14a2,2,0,0,0,2,2h3a2,2,0,0,0,2-2V112.1a2,2,0,0,1,2-2H199a2,2,0,0,1,2,2v28.05a2,2,0,0,1-2,2H181.66a2,2,0,0,0-2,2v3a2,2,0,0,0,2,2H206a2,2,0,0,0,2-2v-42a2,2,0,0,0-2-2H50A2,2,0,0,0,48,105.13Z"/></svg>